<svg width="24" height="24" viewBox="0 0 24 24" fill="none" xmlns="http://www.w3.org/2000/svg">
<path fill-rule="evenodd" clip-rule="evenodd" d="M5 4C5 2.89543 5.89543 2 7 2H17C18.1046 2 19 2.89543 19 4V5.49995L22.2 7.89995C22.7036 8.27766 23 8.87044 23 9.49995V20C23 21.1045 22.1046 22 21 22H3C1.89543 22 1 21.1045 1 20V9.49995C1 8.87044 1.29639 8.27766 1.8 7.89995L5 5.49995V4ZM5 7.99995L3 9.49995V20H5V7.99995ZM19 20H21V9.49995L19 7.99995V20ZM9 6H11V8H9V6ZM15 6H13V8H15V6ZM9 10H11V12H9V10ZM15 10H13V12H15V10ZM9 14H15V16H9V14Z" fill="#336AFF"/>
</svg>
