<svg width="11" height="11" viewBox="0 0 11 11" fill="none" xmlns="http://www.w3.org/2000/svg">
<path fill-rule="evenodd" clip-rule="evenodd" d="M5.5 8.36792C6.60457 8.36792 7.5 7.47249 7.5 6.36792C7.5 5.26335 6.60457 4.36792 5.5 4.36792C4.39543 4.36792 3.5 5.26335 3.5 6.36792C3.5 7.47249 4.39543 8.36792 5.5 8.36792ZM5.5 7.36792C6.05228 7.36792 6.5 6.9202 6.5 6.36792C6.5 5.81564 6.05228 5.36792 5.5 5.36792C4.94772 5.36792 4.5 5.81564 4.5 6.36792C4.5 6.9202 4.94772 7.36792 5.5 7.36792Z" fill="#4A4A4A"/>
<path fill-rule="evenodd" clip-rule="evenodd" d="M2.59954 2.36792L3.50736 0.853716C3.68804 0.552345 4.01364 0.36792 4.36503 0.36792H6.63497C6.98636 0.36792 7.31196 0.552345 7.49264 0.853716L8.40046 2.36792H8.5V1.36792H9.5V2.36792C10.0523 2.36792 10.5 2.81564 10.5 3.36792V9.36792C10.5 9.9202 10.0523 10.3679 9.5 10.3679H1.5C0.947716 10.3679 0.5 9.9202 0.5 9.36792V3.36792C0.5 2.81564 0.947715 2.36792 1.5 2.36792H2.59954ZM3.66023 2.36792L4.25977 1.36792H6.74023L7.33977 2.36792H3.66023ZM1.5 3.36792V9.36792H9.5V3.36792H1.5Z" fill="#4A4A4A"/>
</svg>
