<svg width="14" height="14" viewBox="0 0 14 14" fill="none" xmlns="http://www.w3.org/2000/svg">
<path fill-rule="evenodd" clip-rule="evenodd" d="M12.3359 0.724509C11.8152 0.20381 10.971 0.20381 10.4503 0.724509L3.39313 7.78715C3.14308 8.03719 3.0026 8.37633 3.0026 8.72995V9.67276C3.0026 10.4091 3.59956 11.0061 4.33594 11.0061H5.27875C5.63237 11.0061 5.97151 10.8656 6.22156 10.6156L13.2787 3.55294C13.7994 3.03224 13.7994 2.18802 13.2787 1.66732L12.3359 0.724509ZM4.33594 8.72995L11.3931 1.66732L12.3359 2.61013L5.27875 9.67276H4.33594V8.72995Z" fill="black"/>
<path d="M1.66927 1.00065C0.932891 1.00065 0.335938 1.5976 0.335938 2.33398V12.334C0.335938 13.0704 0.932891 13.6673 1.66927 13.6673H11.6693C12.4057 13.6673 13.0026 13.0704 13.0026 12.334V7.00065H11.6693V12.334H1.66927V2.33398H7.0026V1.00065H1.66927Z" fill="black"/>
</svg>
