<svg width="50" height="51" viewBox="0 0 50 51" fill="none" xmlns="http://www.w3.org/2000/svg">
<path d="M25.0002 0.609375C20.0777 0.609375 15.2657 2.06908 11.1727 4.80391C7.07975 7.53874 3.88967 11.4258 2.00589 15.9737C0.122112 20.5215 -0.370771 25.5259 0.589572 30.3538C1.54992 35.1818 3.92035 39.6166 7.40113 43.0974C10.8819 46.5781 15.3167 48.9486 20.1446 49.9089C24.9726 50.8693 29.9769 50.3764 34.5248 48.4926C39.0726 46.6088 42.9598 43.4188 45.6946 39.3258C48.4294 35.2328 49.8891 30.4208 49.8891 25.4983C49.8891 18.8973 47.2669 12.5667 42.5993 7.89916C37.9318 3.23159 31.6012 0.609375 25.0002 0.609375ZM39.0002 19.7116C39.0002 20.2654 38.836 20.8067 38.5283 21.2672C38.2207 21.7277 37.7834 22.0865 37.2717 22.2985C36.7601 22.5104 36.1971 22.5658 35.654 22.4578C35.1108 22.3498 34.6119 22.0831 34.2203 21.6915C33.8287 21.2999 33.5621 20.801 33.454 20.2579C33.346 19.7147 33.4014 19.1517 33.6134 18.6401C33.8253 18.1285 34.1842 17.6912 34.6446 17.3835C35.1051 17.0758 35.6464 16.9116 36.2002 16.9116C36.9428 16.9116 37.655 17.2066 38.1801 17.7317C38.7052 18.2568 39.0002 18.969 39.0002 19.7116ZM14.8113 22.5116C14.2576 22.5116 13.7162 22.3474 13.2557 22.0397C12.7953 21.732 12.4364 21.2947 12.2245 20.7831C12.0126 20.2715 11.9571 19.7085 12.0651 19.1653C12.1732 18.6222 12.4399 18.1233 12.8314 17.7317C13.223 17.3401 13.7219 17.0734 14.2651 16.9654C14.8082 16.8574 15.3712 16.9128 15.8829 17.1247C16.3945 17.3367 16.8318 17.6955 17.1395 18.156C17.4471 18.6165 17.6113 19.1578 17.6113 19.7116C17.6114 20.0846 17.537 20.4538 17.3924 20.7977C17.2478 21.1415 17.036 21.453 16.7694 21.7138C16.5027 21.9747 16.1867 22.1796 15.8398 22.3166C15.4928 22.4536 15.122 22.5199 14.7491 22.5116H14.8113ZM36.5891 34.2249C36.8367 34.555 36.9429 34.9698 36.8846 35.3783C36.8263 35.7867 36.6081 36.1552 36.278 36.4027C35.948 36.6502 35.5331 36.7565 35.1247 36.6982C34.7163 36.6398 34.3478 36.4216 34.1002 36.0916C33.0738 34.7178 31.7373 33.6059 30.1998 32.8464C28.6622 32.0869 26.967 31.7013 25.2522 31.721C23.5374 31.7407 21.8515 32.1652 20.3317 32.9598C18.812 33.7544 17.5015 34.8968 16.5069 36.2938C16.2676 36.6301 15.9046 36.8575 15.4976 36.926C15.0907 36.9946 14.6731 36.8987 14.3369 36.6594C14.0007 36.4201 13.7733 36.057 13.7047 35.6501C13.6361 35.2431 13.7321 34.8256 13.9713 34.4894C15.2498 32.6934 16.9344 31.2247 18.8879 30.2029C20.8414 29.1811 23.0086 28.6351 25.213 28.6093C27.4175 28.5835 29.5968 29.0787 31.5737 30.0546C33.5505 31.0304 35.269 32.4593 36.5891 34.2249Z" fill="#CD2026"/>
</svg>
