<svg width="64" height="64" viewBox="0 0 64 64" fill="none" xmlns="http://www.w3.org/2000/svg">
  <rect width="64" height="64" rx="16" fill="white" />
  
  <path 
    fill-rule="evenodd" 
    clip-rule="evenodd" 
    d="M14 20C14 18.8954 14.8954 18 16 18H24C25.1046 18 26 18.8954 26 20V24.5C28.5 20.5 33 18 38 18C46.8 18 52 23.5 52 32V48C52 49.1046 51.1046 50 50 50H42C40.8954 50 40 49.1046 40 48V34C40 29.5 37.5 27 34 27C30.5 27 26 29.5 26 34V48C26 49.1046 25.1046 50 24 50H16C14.8954 50 14 49.1046 14 48V20Z" 
    fill="#00852C"
  />
</svg>