<svg width="454" height="44" viewBox="0 0 454 44" fill="none" xmlns="http://www.w3.org/2000/svg">
<g clip-path="url(#clip0_2556_16448)">
<rect width="454" height="44" rx="7" fill="#E6F3EA"/>
<path d="M137.454 28V16.3636H145.294V18.392H139.914V21.1648H144.891V23.1932H139.914V25.9716H145.317V28H137.454ZM155.291 19.2727L152.24 28H149.513L146.462 19.2727H149.019L150.831 25.517H150.922L152.729 19.2727H155.291ZM160.176 28.1705C159.278 28.1705 158.506 27.9886 157.858 27.625C157.214 27.2576 156.718 26.7386 156.369 26.0682C156.021 25.3939 155.846 24.5966 155.846 23.6761C155.846 22.7784 156.021 21.9905 156.369 21.3125C156.718 20.6345 157.208 20.1061 157.841 19.7273C158.477 19.3485 159.223 19.1591 160.079 19.1591C160.655 19.1591 161.191 19.2519 161.687 19.4375C162.187 19.6193 162.623 19.8939 162.994 20.2614C163.369 20.6288 163.661 21.0909 163.869 21.6477C164.078 22.2008 164.182 22.8485 164.182 23.5909V24.2557H156.812V22.7557H161.903C161.903 22.4072 161.828 22.0985 161.676 21.8295C161.524 21.5606 161.314 21.3504 161.045 21.1989C160.78 21.0436 160.471 20.9659 160.119 20.9659C159.752 20.9659 159.426 21.0511 159.142 21.2216C158.862 21.3883 158.642 21.6136 158.483 21.8977C158.324 22.178 158.242 22.4905 158.238 22.8352V24.2614C158.238 24.6932 158.318 25.0663 158.477 25.3807C158.64 25.6951 158.869 25.9375 159.165 26.108C159.46 26.2784 159.81 26.3636 160.216 26.3636C160.485 26.3636 160.731 26.3258 160.954 26.25C161.178 26.1742 161.369 26.0606 161.528 25.9091C161.687 25.7576 161.809 25.572 161.892 25.3523L164.131 25.5C164.017 26.0379 163.784 26.5076 163.432 26.9091C163.083 27.3068 162.632 27.6174 162.079 27.8409C161.53 28.0606 160.896 28.1705 160.176 28.1705ZM165.711 28V19.2727H168.058V20.7955H168.149C168.308 20.2538 168.575 19.8447 168.95 19.5682C169.325 19.2879 169.757 19.1477 170.245 19.1477C170.367 19.1477 170.497 19.1553 170.637 19.1705C170.778 19.1856 170.901 19.2064 171.007 19.233V21.3807C170.893 21.3466 170.736 21.3163 170.535 21.2898C170.334 21.2633 170.151 21.25 169.984 21.25C169.628 21.25 169.31 21.3277 169.029 21.483C168.753 21.6345 168.533 21.8466 168.37 22.1193C168.211 22.392 168.132 22.7064 168.132 23.0625V28H165.711ZM173.968 31.2727C173.661 31.2727 173.373 31.2481 173.104 31.1989C172.839 31.1534 172.62 31.0947 172.445 31.0227L172.991 29.2159C173.275 29.303 173.531 29.3504 173.758 29.358C173.989 29.3655 174.188 29.3125 174.354 29.1989C174.525 29.0852 174.663 28.892 174.769 28.6193L174.911 28.25L171.781 19.2727H174.326L176.133 25.6818H176.224L178.048 19.2727H180.61L177.218 28.9432C177.055 29.4129 176.834 29.822 176.553 30.1705C176.277 30.5227 175.926 30.7936 175.502 30.983C175.078 31.1761 174.567 31.2727 173.968 31.2727ZM190.145 19.2727V21.0909H184.759V19.2727H190.145ZM185.992 28V18.642C185.992 18.0095 186.115 17.4848 186.361 17.0682C186.611 16.6515 186.952 16.339 187.384 16.1307C187.815 15.9223 188.306 15.8182 188.855 15.8182C189.226 15.8182 189.565 15.8466 189.872 15.9034C190.183 15.9602 190.414 16.0114 190.565 16.0568L190.134 17.875C190.039 17.8447 189.922 17.8163 189.781 17.7898C189.645 17.7633 189.505 17.75 189.361 17.75C189.005 17.75 188.757 17.8333 188.617 18C188.476 18.1629 188.406 18.392 188.406 18.6875V28H185.992ZM195.238 28.1705C194.341 28.1705 193.568 27.9886 192.92 27.625C192.276 27.2576 191.78 26.7386 191.432 26.0682C191.083 25.3939 190.909 24.5966 190.909 23.6761C190.909 22.7784 191.083 21.9905 191.432 21.3125C191.78 20.6345 192.271 20.1061 192.903 19.7273C193.54 19.3485 194.286 19.1591 195.142 19.1591C195.718 19.1591 196.254 19.2519 196.75 19.4375C197.25 19.6193 197.685 19.8939 198.057 20.2614C198.432 20.6288 198.723 21.0909 198.932 21.6477C199.14 22.2008 199.244 22.8485 199.244 23.5909V24.2557H191.875V22.7557H196.966C196.966 22.4072 196.89 22.0985 196.738 21.8295C196.587 21.5606 196.377 21.3504 196.108 21.1989C195.843 21.0436 195.534 20.9659 195.182 20.9659C194.814 20.9659 194.488 21.0511 194.204 21.2216C193.924 21.3883 193.704 21.6136 193.545 21.8977C193.386 22.178 193.305 22.4905 193.301 22.8352V24.2614C193.301 24.6932 193.381 25.0663 193.54 25.3807C193.703 25.6951 193.932 25.9375 194.227 26.108C194.523 26.2784 194.873 26.3636 195.278 26.3636C195.547 26.3636 195.793 26.3258 196.017 26.25C196.24 26.1742 196.432 26.0606 196.591 25.9091C196.75 25.7576 196.871 25.572 196.954 25.3523L199.193 25.5C199.079 26.0379 198.846 26.5076 198.494 26.9091C198.146 27.3068 197.695 27.6174 197.142 27.8409C196.593 28.0606 195.958 28.1705 195.238 28.1705ZM204.751 28.1705C203.853 28.1705 203.081 27.9886 202.433 27.625C201.789 27.2576 201.293 26.7386 200.944 26.0682C200.596 25.3939 200.421 24.5966 200.421 23.6761C200.421 22.7784 200.596 21.9905 200.944 21.3125C201.293 20.6345 201.783 20.1061 202.416 19.7273C203.052 19.3485 203.798 19.1591 204.654 19.1591C205.23 19.1591 205.766 19.2519 206.262 19.4375C206.762 19.6193 207.198 19.8939 207.569 20.2614C207.944 20.6288 208.236 21.0909 208.444 21.6477C208.653 22.2008 208.757 22.8485 208.757 23.5909V24.2557H201.387V22.7557H206.478C206.478 22.4072 206.403 22.0985 206.251 21.8295C206.099 21.5606 205.889 21.3504 205.62 21.1989C205.355 21.0436 205.046 20.9659 204.694 20.9659C204.327 20.9659 204.001 21.0511 203.717 21.2216C203.437 21.3883 203.217 21.6136 203.058 21.8977C202.899 22.178 202.817 22.4905 202.813 22.8352V24.2614C202.813 24.6932 202.893 25.0663 203.052 25.3807C203.215 25.6951 203.444 25.9375 203.74 26.108C204.035 26.2784 204.385 26.3636 204.791 26.3636C205.06 26.3636 205.306 26.3258 205.529 26.25C205.753 26.1742 205.944 26.0606 206.103 25.9091C206.262 25.7576 206.384 25.572 206.467 25.3523L208.706 25.5C208.592 26.0379 208.359 26.5076 208.007 26.9091C207.658 27.3068 207.207 27.6174 206.654 27.8409C206.105 28.0606 205.471 28.1705 204.751 28.1705ZM213.502 28.142C212.839 28.142 212.239 27.9716 211.701 27.6307C211.167 27.286 210.743 26.7803 210.428 26.1136C210.118 25.4432 209.962 24.6212 209.962 23.6477C209.962 22.6477 210.123 21.8163 210.445 21.1534C210.767 20.4867 211.195 19.9886 211.729 19.6591C212.267 19.3258 212.856 19.1591 213.496 19.1591C213.985 19.1591 214.392 19.2424 214.718 19.4091C215.048 19.572 215.313 19.7765 215.513 20.0227C215.718 20.2652 215.873 20.5038 215.979 20.7386H216.053V16.3636H218.468V28H216.082V26.6023H215.979C215.866 26.8447 215.705 27.0852 215.496 27.3239C215.292 27.5587 215.025 27.7538 214.695 27.9091C214.37 28.0644 213.972 28.142 213.502 28.142ZM214.269 26.2159C214.659 26.2159 214.989 26.1098 215.258 25.8977C215.531 25.6818 215.739 25.3807 215.883 24.9943C216.031 24.608 216.104 24.1553 216.104 23.6364C216.104 23.1174 216.032 22.6667 215.888 22.2841C215.745 21.9015 215.536 21.6061 215.263 21.3977C214.991 21.1894 214.659 21.0852 214.269 21.0852C213.871 21.0852 213.536 21.1932 213.263 21.4091C212.991 21.625 212.784 21.9242 212.644 22.3068C212.504 22.6894 212.434 23.1326 212.434 23.6364C212.434 24.1439 212.504 24.5928 212.644 24.983C212.788 25.3693 212.995 25.6723 213.263 25.892C213.536 26.108 213.871 26.2159 214.269 26.2159ZM220.454 28V16.3636H222.874V20.7386H222.948C223.054 20.5038 223.207 20.2652 223.408 20.0227C223.613 19.7765 223.878 19.572 224.204 19.4091C224.533 19.2424 224.942 19.1591 225.431 19.1591C226.067 19.1591 226.654 19.3258 227.192 19.6591C227.73 19.9886 228.16 20.4867 228.482 21.1534C228.804 21.8163 228.965 22.6477 228.965 23.6477C228.965 24.6212 228.808 25.4432 228.493 26.1136C228.183 26.7803 227.758 27.286 227.221 27.6307C226.687 27.9716 226.088 28.142 225.425 28.142C224.955 28.142 224.556 28.0644 224.226 27.9091C223.901 27.7538 223.633 27.5587 223.425 27.3239C223.217 27.0852 223.058 26.8447 222.948 26.6023H222.84V28H220.454ZM222.823 23.6364C222.823 24.1553 222.895 24.608 223.039 24.9943C223.183 25.3807 223.391 25.6818 223.664 25.8977C223.937 26.1098 224.268 26.2159 224.658 26.2159C225.052 26.2159 225.385 26.108 225.658 25.892C225.931 25.6723 226.137 25.3693 226.277 24.983C226.421 24.5928 226.493 24.1439 226.493 23.6364C226.493 23.1326 226.423 22.6894 226.283 22.3068C226.143 21.9242 225.937 21.625 225.664 21.4091C225.391 21.1932 225.056 21.0852 224.658 21.0852C224.264 21.0852 223.931 21.1894 223.658 21.3977C223.389 21.6061 223.183 21.9015 223.039 22.2841C222.895 22.6667 222.823 23.1174 222.823 23.6364ZM233.019 28.1648C232.462 28.1648 231.966 28.0682 231.53 27.875C231.094 27.678 230.75 27.3883 230.496 27.0057C230.246 26.6193 230.121 26.1383 230.121 25.5625C230.121 25.0777 230.21 24.6705 230.388 24.3409C230.566 24.0114 230.808 23.7462 231.115 23.5455C231.422 23.3447 231.77 23.1932 232.161 23.0909C232.555 22.9886 232.967 22.9167 233.399 22.875C233.907 22.822 234.316 22.7727 234.627 22.7273C234.937 22.678 235.163 22.6061 235.303 22.5114C235.443 22.4167 235.513 22.2765 235.513 22.0909V22.0568C235.513 21.697 235.399 21.4186 235.172 21.2216C234.949 21.0246 234.63 20.9261 234.217 20.9261C233.782 20.9261 233.435 21.0227 233.178 21.2159C232.92 21.4053 232.75 21.6439 232.666 21.9318L230.428 21.75C230.541 21.2197 230.765 20.7614 231.098 20.375C231.431 19.9848 231.861 19.6856 232.388 19.4773C232.918 19.2652 233.532 19.1591 234.229 19.1591C234.714 19.1591 235.178 19.2159 235.621 19.3295C236.068 19.4432 236.464 19.6193 236.808 19.858C237.157 20.0966 237.431 20.4034 237.632 20.7784C237.833 21.1496 237.933 21.5947 237.933 22.1136V28H235.638V26.7898H235.57C235.43 27.0625 235.242 27.303 235.007 27.5114C234.772 27.7159 234.49 27.8769 234.161 27.9943C233.831 28.108 233.45 28.1648 233.019 28.1648ZM233.712 26.4943C234.068 26.4943 234.382 26.4242 234.655 26.2841C234.928 26.1402 235.142 25.947 235.297 25.7045C235.452 25.4621 235.53 25.1875 235.53 24.8807V23.9545C235.454 24.0038 235.35 24.0492 235.217 24.0909C235.089 24.1288 234.943 24.1648 234.78 24.1989C234.617 24.2292 234.454 24.2576 234.291 24.2841C234.128 24.3068 233.981 24.3277 233.848 24.3466C233.564 24.3883 233.316 24.4545 233.104 24.5455C232.892 24.6364 232.727 24.7595 232.61 24.9148C232.492 25.0663 232.433 25.2557 232.433 25.483C232.433 25.8125 232.553 26.0644 232.791 26.2386C233.034 26.4091 233.341 26.4943 233.712 26.4943ZM243.704 28.1705C242.81 28.1705 242.042 27.9811 241.398 27.6023C240.757 27.2197 240.265 26.6894 239.92 26.0114C239.579 25.3333 239.409 24.553 239.409 23.6705C239.409 22.7765 239.581 21.9924 239.926 21.3182C240.274 20.6402 240.769 20.1117 241.409 19.733C242.049 19.3504 242.81 19.1591 243.693 19.1591C244.454 19.1591 245.121 19.2973 245.693 19.5739C246.265 19.8504 246.718 20.2386 247.051 20.7386C247.384 21.2386 247.568 21.8258 247.602 22.5H245.318C245.254 22.0644 245.083 21.714 244.807 21.4489C244.534 21.1799 244.176 21.0455 243.733 21.0455C243.358 21.0455 243.03 21.1477 242.75 21.3523C242.473 21.553 242.257 21.8466 242.102 22.233C241.947 22.6193 241.869 23.0871 241.869 23.6364C241.869 24.1932 241.945 24.6667 242.096 25.0568C242.252 25.447 242.47 25.7443 242.75 25.9489C243.03 26.1534 243.358 26.2557 243.733 26.2557C244.009 26.2557 244.257 26.1989 244.477 26.0852C244.701 25.9716 244.884 25.8068 245.028 25.5909C245.176 25.3712 245.273 25.108 245.318 24.8011H247.602C247.564 25.4678 247.382 26.0549 247.057 26.5625C246.735 27.0663 246.29 27.4602 245.721 27.7443C245.153 28.0284 244.481 28.1705 243.704 28.1705ZM251.295 25.4886L251.301 22.5852H251.653L254.448 19.2727H257.227L253.471 23.6591H252.897L251.295 25.4886ZM249.102 28V16.3636H251.522V28H249.102ZM254.556 28L251.988 24.1989L253.602 22.4886L257.392 28H254.556ZM262.017 28V19.2727H264.438V28H262.017ZM263.233 18.1477C262.874 18.1477 262.565 18.0284 262.307 17.7898C262.053 17.5473 261.927 17.2576 261.927 16.9205C261.927 16.5871 262.053 16.3011 262.307 16.0625C262.565 15.8201 262.874 15.6989 263.233 15.6989C263.593 15.6989 263.9 15.8201 264.154 16.0625C264.411 16.3011 264.54 16.5871 264.54 16.9205C264.54 17.2576 264.411 17.5473 264.154 17.7898C263.9 18.0284 263.593 18.1477 263.233 18.1477ZM273.588 21.7614L271.372 21.8977C271.334 21.7083 271.253 21.5379 271.128 21.3864C271.003 21.2311 270.838 21.108 270.634 21.017C270.433 20.9223 270.192 20.875 269.912 20.875C269.537 20.875 269.221 20.9545 268.963 21.1136C268.706 21.2689 268.577 21.4773 268.577 21.7386C268.577 21.947 268.66 22.1231 268.827 22.267C268.994 22.411 269.279 22.5265 269.685 22.6136L271.264 22.9318C272.113 23.1061 272.745 23.3864 273.162 23.7727C273.579 24.1591 273.787 24.6667 273.787 25.2955C273.787 25.8674 273.619 26.3693 273.281 26.8011C272.948 27.233 272.49 27.5701 271.906 27.8125C271.327 28.0511 270.658 28.1705 269.901 28.1705C268.745 28.1705 267.825 27.9299 267.139 27.4489C266.458 26.964 266.058 26.3049 265.94 25.4716L268.321 25.3466C268.393 25.6989 268.567 25.9678 268.844 26.1534C269.12 26.3352 269.475 26.4261 269.906 26.4261C270.331 26.4261 270.672 26.3447 270.929 26.1818C271.19 26.0152 271.323 25.8011 271.327 25.5398C271.323 25.3201 271.23 25.1402 271.048 25C270.867 24.8561 270.586 24.7462 270.208 24.6705L268.696 24.3693C267.844 24.1989 267.209 23.9034 266.793 23.483C266.38 23.0625 266.173 22.5265 266.173 21.875C266.173 21.3144 266.325 20.8314 266.628 20.4261C266.935 20.0208 267.365 19.7083 267.918 19.4886C268.475 19.2689 269.126 19.1591 269.872 19.1591C270.975 19.1591 271.842 19.392 272.475 19.858C273.111 20.3239 273.482 20.9583 273.588 21.7614ZM281.403 28.1648C280.846 28.1648 280.35 28.0682 279.914 27.875C279.479 27.678 279.134 27.3883 278.88 27.0057C278.63 26.6193 278.505 26.1383 278.505 25.5625C278.505 25.0777 278.594 24.6705 278.772 24.3409C278.95 24.0114 279.193 23.7462 279.5 23.5455C279.806 23.3447 280.155 23.1932 280.545 23.0909C280.939 22.9886 281.352 22.9167 281.784 22.875C282.291 22.822 282.7 22.7727 283.011 22.7273C283.322 22.678 283.547 22.6061 283.687 22.5114C283.827 22.4167 283.897 22.2765 283.897 22.0909V22.0568C283.897 21.697 283.784 21.4186 283.556 21.2216C283.333 21.0246 283.015 20.9261 282.602 20.9261C282.166 20.9261 281.82 21.0227 281.562 21.2159C281.305 21.4053 281.134 21.6439 281.051 21.9318L278.812 21.75C278.926 21.2197 279.149 20.7614 279.483 20.375C279.816 19.9848 280.246 19.6856 280.772 19.4773C281.303 19.2652 281.916 19.1591 282.613 19.1591C283.098 19.1591 283.562 19.2159 284.005 19.3295C284.452 19.4432 284.848 19.6193 285.193 19.858C285.541 20.0966 285.816 20.4034 286.017 20.7784C286.217 21.1496 286.318 21.5947 286.318 22.1136V28H284.022V26.7898H283.954C283.814 27.0625 283.626 27.303 283.392 27.5114C283.157 27.7159 282.875 27.8769 282.545 27.9943C282.215 28.108 281.835 28.1648 281.403 28.1648ZM282.096 26.4943C282.452 26.4943 282.767 26.4242 283.039 26.2841C283.312 26.1402 283.526 25.947 283.681 25.7045C283.837 25.4621 283.914 25.1875 283.914 24.8807V23.9545C283.839 24.0038 283.734 24.0492 283.602 24.0909C283.473 24.1288 283.327 24.1648 283.164 24.1989C283.001 24.2292 282.839 24.2576 282.676 24.2841C282.513 24.3068 282.365 24.3277 282.233 24.3466C281.948 24.3883 281.7 24.4545 281.488 24.5455C281.276 24.6364 281.111 24.7595 280.994 24.9148C280.876 25.0663 280.818 25.2557 280.818 25.483C280.818 25.8125 280.937 26.0644 281.176 26.2386C281.418 26.4091 281.725 26.4943 282.096 26.4943ZM295.731 31.4545C294.946 31.4545 294.274 31.3466 293.713 31.1307C293.157 30.9186 292.713 30.6288 292.384 30.2614C292.054 29.8939 291.84 29.4811 291.742 29.0227L293.981 28.7216C294.049 28.8958 294.157 29.0587 294.304 29.2102C294.452 29.3617 294.647 29.483 294.89 29.5739C295.136 29.6686 295.435 29.7159 295.787 29.7159C296.314 29.7159 296.748 29.5871 297.088 29.3295C297.433 29.0758 297.606 28.6496 297.606 28.0511V26.4545H297.503C297.397 26.697 297.238 26.9261 297.026 27.142C296.814 27.358 296.541 27.5341 296.208 27.6705C295.874 27.8068 295.477 27.875 295.015 27.875C294.359 27.875 293.763 27.7235 293.225 27.4205C292.691 27.1136 292.265 26.6458 291.946 26.017C291.632 25.3845 291.475 24.5852 291.475 23.6193C291.475 22.6307 291.636 21.8049 291.958 21.142C292.28 20.4792 292.708 19.983 293.242 19.6534C293.78 19.3239 294.369 19.1591 295.009 19.1591C295.498 19.1591 295.907 19.2424 296.236 19.4091C296.566 19.572 296.831 19.7765 297.032 20.0227C297.236 20.2652 297.393 20.5038 297.503 20.7386H297.594V19.2727H299.998V28.0852C299.998 28.8277 299.816 29.4489 299.452 29.9489C299.088 30.4489 298.585 30.8239 297.941 31.0739C297.301 31.3277 296.564 31.4545 295.731 31.4545ZM295.782 26.0568C296.172 26.0568 296.501 25.9602 296.77 25.767C297.043 25.5701 297.251 25.2898 297.395 24.9261C297.543 24.5587 297.617 24.1193 297.617 23.608C297.617 23.0966 297.545 22.6534 297.401 22.2784C297.257 21.8996 297.049 21.6061 296.776 21.3977C296.503 21.1894 296.172 21.0852 295.782 21.0852C295.384 21.0852 295.049 21.1932 294.776 21.4091C294.503 21.6212 294.297 21.9167 294.157 22.2955C294.017 22.6742 293.946 23.1117 293.946 23.608C293.946 24.1117 294.017 24.5473 294.157 24.9148C294.301 25.2784 294.507 25.5606 294.776 25.7614C295.049 25.9583 295.384 26.0568 295.782 26.0568ZM301.874 28V19.2727H304.294V28H301.874ZM303.09 18.1477C302.73 18.1477 302.421 18.0284 302.163 17.7898C301.91 17.5473 301.783 17.2576 301.783 16.9205C301.783 16.5871 301.91 16.3011 302.163 16.0625C302.421 15.8201 302.73 15.6989 303.09 15.6989C303.449 15.6989 303.756 15.8201 304.01 16.0625C304.268 16.3011 304.396 16.5871 304.396 16.9205C304.396 17.2576 304.268 17.5473 304.01 17.7898C303.756 18.0284 303.449 18.1477 303.09 18.1477ZM310.876 19.2727V21.0909H305.49V19.2727H310.876ZM306.723 28V18.642C306.723 18.0095 306.846 17.4848 307.092 17.0682C307.342 16.6515 307.683 16.339 308.115 16.1307C308.547 15.9223 309.037 15.8182 309.586 15.8182C309.958 15.8182 310.297 15.8466 310.604 15.9034C310.914 15.9602 311.145 16.0114 311.297 16.0568L310.865 17.875C310.77 17.8447 310.653 17.8163 310.513 17.7898C310.376 17.7633 310.236 17.75 310.092 17.75C309.736 17.75 309.488 17.8333 309.348 18C309.208 18.1629 309.138 18.392 309.138 18.6875V28H306.723ZM316.947 19.2727V21.0909H311.691V19.2727H316.947ZM312.885 17.1818H315.305V25.3182C315.305 25.5417 315.339 25.7159 315.407 25.8409C315.475 25.9621 315.57 26.0473 315.691 26.0966C315.816 26.1458 315.96 26.1705 316.123 26.1705C316.237 26.1705 316.35 26.161 316.464 26.142C316.578 26.1193 316.665 26.1023 316.725 26.0909L317.106 27.892C316.985 27.9299 316.814 27.9735 316.595 28.0227C316.375 28.0758 316.108 28.108 315.794 28.1193C315.21 28.142 314.699 28.0644 314.26 27.8864C313.824 27.7083 313.485 27.4318 313.242 27.0568C313 26.6818 312.881 26.2083 312.885 25.6364V17.1818Z" fill="#00852C"/>
<g clip-path="url(#clip1_2556_16448)">
<path d="M419.713 3.73943C415.578 2.35955 410.238 5.02623 410.455 10.5828L403.508 8.30514C402.345 7.92403 401.079 8.02032 399.987 8.57284C398.896 9.12536 398.069 10.0888 397.688 11.2513L396.251 15.6345C396.06 16.2158 396.108 16.8489 396.384 17.3947C396.661 17.9404 397.142 18.3541 397.724 18.5446L417.448 25.0111L419.604 18.4363L423.987 19.8733L421.831 26.4481L441.556 32.9146C442.137 33.1052 442.77 33.057 443.316 32.7808C443.862 32.5045 444.275 32.0227 444.466 31.4415L445.903 27.0583C446.284 25.8958 446.188 24.6295 445.635 23.538C445.082 22.4465 444.119 21.6192 442.957 21.2381L436.009 18.9605C440.923 12.6346 432.939 4.41059 426.464 9.13235L424.669 10.3884L423.98 8.26943C423.239 5.86625 421.613 4.38644 419.713 3.73943ZM418.094 8.23293C420.045 8.87239 420.255 11.5626 418.422 12.4907C416.588 13.4188 414.545 11.6566 415.184 9.70603C415.375 9.12478 415.788 8.64304 416.334 8.36678C416.88 8.09052 417.513 8.04237 418.094 8.23293ZM431.244 12.5439C433.194 13.1834 433.405 15.8736 431.571 16.8017C429.738 17.7297 427.694 15.9675 428.334 14.017C428.524 13.4358 428.938 12.954 429.484 12.6778C430.03 12.4015 430.663 12.3534 431.244 12.5439ZM397.005 20.7362L391.257 38.269C390.876 39.4315 390.972 40.6978 391.525 41.7893C392.077 42.8808 393.041 43.7081 394.203 44.0892L429.269 55.5852C430.431 55.9663 431.698 55.87 432.789 55.3175C433.881 54.765 434.708 53.8015 435.089 52.639L440.837 35.1062L421.113 28.6397L415.365 46.1725L410.982 44.7355L416.73 27.2027L397.005 20.7362Z" fill="#00852C"/>
</g>
<g clip-path="url(#clip2_2556_16448)">
<path d="M24.3349 8.21713C20.1184 9.32306 17.1057 14.476 20.3261 19.0093L13.264 20.9016C12.0823 21.2183 11.0748 21.9913 10.4631 23.0508C9.85144 24.1103 9.68568 25.3694 10.0023 26.5511L11.1962 31.0066C11.3545 31.5975 11.741 32.1012 12.2708 32.4071C12.8005 32.7129 13.4301 32.7958 14.0209 32.6375L34.0709 27.2651L32.2802 20.5817L36.7357 19.3879L38.5265 26.0712L58.5766 20.6988C59.1674 20.5405 59.6712 20.154 59.977 19.6242C60.2829 19.0945 60.3657 18.4649 60.2074 17.8741L59.0136 13.4185C58.6969 12.2368 57.9238 11.2293 56.8644 10.6177C55.8049 10.006 54.5458 9.8402 53.3641 10.1568L46.302 12.0491C46.9566 4.06585 35.7754 1.54617 32.9364 9.0403L32.1202 11.0737L30.3848 9.67624C28.45 8.06958 26.279 7.72008 24.3349 8.21713ZM25.4369 12.8645C27.4196 12.3332 29.0668 14.4706 28.0393 16.2501C27.0119 18.0297 24.3373 17.6719 23.806 15.6892C23.6477 15.0983 23.7306 14.4688 24.0364 13.9391C24.3423 13.4093 24.846 13.0228 25.4369 12.8645ZM38.8036 9.28286C40.7863 8.7516 42.4335 10.889 41.406 12.6686C40.3786 14.4481 37.704 14.0903 37.1727 12.1076C37.0144 11.5167 37.0973 10.8872 37.4031 10.3575C37.709 9.82773 38.2127 9.44118 38.8036 9.28286ZM14.6178 34.8653L19.3933 52.6875C19.7099 53.8692 20.483 54.8767 21.5425 55.4884C22.602 56.1001 23.861 56.2659 25.0427 55.9492L60.6873 46.3983C61.869 46.0817 62.8765 45.3086 63.4882 44.2491C64.0998 43.1896 64.2656 41.9306 63.949 40.7489L59.1735 22.9266L39.1234 28.299L43.8989 46.1213L39.4433 47.3151L34.6679 29.4929L14.6178 34.8653Z" fill="#00852C"/>
</g>
</g>
<defs>
<clipPath id="clip0_2556_16448">
<rect width="454" height="44" rx="7" fill="white"/>
</clipPath>
<clipPath id="clip1_2556_16448">
<rect width="55.3529" height="55.3529" fill="white" transform="translate(401.244 -7) rotate(18.1513)"/>
</clipPath>
<clipPath id="clip2_2556_16448">
<rect width="55.3529" height="55.3529" fill="white" transform="translate(3 9.32617) rotate(-15)"/>
</clipPath>
</defs>
</svg>
