<svg width="20" height="20" viewBox="0 0 20 20" fill="none" xmlns="http://www.w3.org/2000/svg">
<path d="M4.2189 9.16699C4.62898 5.8784 7.4343 3.33366 10.834 3.33366C14.5159 3.33366 17.5006 6.31843 17.5006 10.0003C17.5006 13.6822 14.5159 16.667 10.834 16.667C8.36638 16.667 6.21185 15.3263 5.05915 13.3337H3.19401C4.47994 16.2768 7.41678 18.3337 10.834 18.3337C15.4364 18.3337 19.1673 14.6027 19.1673 10.0003C19.1673 5.39795 15.4364 1.66699 10.834 1.66699C6.51286 1.66699 2.9599 4.95589 2.5418 9.16699H0.833984L3.33398 11.667L5.83398 9.16699H4.2189Z" fill="#3A3A3A"/>
<path d="M11.6673 9.65515V5.00033H10.0007V10.3455L11.9114 12.2562L13.0899 11.0777L11.6673 9.65515Z" fill="#3A3A3A"/>
</svg>
