<svg width="37" height="37" viewBox="0 0 37 37" fill="none" xmlns="http://www.w3.org/2000/svg">
<path d="M14 3.50098C16.7848 3.50098 19.4555 4.60722 21.4246 6.57636C23.3938 8.54549 24.5 11.2162 24.5 14.001C24.5 16.251 23.75 18.501 22.415 20.286L23.615 21.501H24.5L33.5 30.501L30.5 33.501L21.5 24.501V23.616L20.285 22.416C18.4662 23.764 16.2638 24.4946 14 24.501C11.2152 24.501 8.54451 23.3947 6.57538 21.4256C4.60625 19.4565 3.5 16.7857 3.5 14.001C3.5 11.2162 4.60625 8.54549 6.57538 6.57636C8.54451 4.60722 11.2152 3.50098 14 3.50098V3.50098ZM17.18 8.69098L14 11.886L10.82 8.69098L8.69 10.821L11.885 14.001L8.69 17.181L10.82 19.311L14 16.116L17.18 19.311L19.31 17.181L16.115 14.001L19.31 10.821L17.18 8.69098V8.69098Z" fill="#C8C8C8"/>
</svg>
