<svg width="37" height="37" viewBox="0 0 37 37" fill="none" xmlns="http://www.w3.org/2000/svg">
<path d="M6.5 27.501C5.675 27.501 4.969 27.2075 4.382 26.6205C3.794 26.0325 3.5 25.326 3.5 24.501V8.00098C3.5 7.17598 3.794 6.46948 4.382 5.88148C4.969 5.29448 5.675 5.00098 6.5 5.00098H30.5C31.325 5.00098 32.0315 5.29448 32.6195 5.88148C33.2065 6.46948 33.5 7.17598 33.5 8.00098V24.501C33.5 25.326 33.2065 26.0325 32.6195 26.6205C32.0315 27.2075 31.325 27.501 30.5 27.501H6.5ZM6.5 24.501H30.5V8.00098H6.5V24.501ZM3.5 32.001C3.075 32.001 2.719 31.857 2.432 31.569C2.144 31.282 2 30.926 2 30.501C2 30.076 2.144 29.72 2.432 29.433C2.719 29.145 3.075 29.001 3.5 29.001H33.5C33.925 29.001 34.281 29.145 34.568 29.433C34.856 29.72 35 30.076 35 30.501C35 30.926 34.856 31.282 34.568 31.569C34.281 31.857 33.925 32.001 33.5 32.001H3.5ZM6.5 24.501V8.00098V24.501Z" fill="#C8C8C8"/>
<path d="M14.7268 13.2279C14.779 13.1755 14.8411 13.1339 14.9094 13.1056C14.9778 13.0772 15.051 13.0626 15.125 13.0626C15.199 13.0626 15.2723 13.0772 15.3406 13.1056C15.409 13.1339 15.471 13.1755 15.5233 13.2279L18.5 16.2058L21.4768 13.2279C21.5291 13.1756 21.5912 13.1341 21.6595 13.1058C21.7278 13.0775 21.8011 13.0629 21.875 13.0629C21.949 13.0629 22.0222 13.0775 22.0906 13.1058C22.1589 13.1341 22.221 13.1756 22.2733 13.2279C22.3256 13.2802 22.3671 13.3423 22.3954 13.4106C22.4237 13.4789 22.4382 13.5522 22.4382 13.6261C22.4382 13.7001 22.4237 13.7733 22.3954 13.8417C22.3671 13.91 22.3256 13.9721 22.2733 14.0244L19.2954 17.0011L22.2733 19.9779C22.3256 20.0302 22.3671 20.0923 22.3954 20.1606C22.4237 20.2289 22.4382 20.3022 22.4382 20.3761C22.4382 20.4501 22.4237 20.5233 22.3954 20.5917C22.3671 20.66 22.3256 20.7221 22.2733 20.7744C22.221 20.8267 22.1589 20.8682 22.0906 20.8965C22.0222 20.9248 21.949 20.9393 21.875 20.9393C21.8011 20.9393 21.7278 20.9248 21.6595 20.8965C21.5912 20.8682 21.5291 20.8267 21.4768 20.7744L18.5 17.7965L15.5233 20.7744C15.471 20.8267 15.4089 20.8682 15.3406 20.8965C15.2722 20.9248 15.199 20.9393 15.125 20.9393C15.0511 20.9393 14.9778 20.9248 14.9095 20.8965C14.8412 20.8682 14.7791 20.8267 14.7268 20.7744C14.6745 20.7221 14.633 20.66 14.6047 20.5917C14.5764 20.5233 14.5618 20.4501 14.5618 20.3761C14.5618 20.3022 14.5764 20.2289 14.6047 20.1606C14.633 20.0923 14.6745 20.0302 14.7268 19.9779L17.7047 17.0011L14.7268 14.0244C14.6744 13.9721 14.6328 13.9101 14.6045 13.8417C14.5761 13.7734 14.5615 13.7001 14.5615 13.6261C14.5615 13.5521 14.5761 13.4789 14.6045 13.4105C14.6328 13.3422 14.6744 13.2801 14.7268 13.2279Z" fill="#C8C8C8"/>
</svg>
