<svg width="22" height="22" viewBox="0 0 22 22" fill="none" xmlns="http://www.w3.org/2000/svg">
<path fill-rule="evenodd" clip-rule="evenodd" d="M4.11737 1.40152C2.25222 1.6185 0.761285 2.96764 0.454593 4.71594C-0.151531 8.17115 -0.151531 11.6968 0.454593 15.152C0.709253 16.6037 1.78041 17.7802 3.20433 18.2618C3.44037 19.1156 3.71357 19.9595 4.02256 20.791C4.79324 22.3149 7.10548 22.3149 7.87616 20.791L8.56534 18.874C11.2799 19.0079 14.0037 18.9177 16.7056 18.6033L17.8826 18.4664C19.7477 18.2494 21.2387 16.9003 21.5454 15.152C22.1515 11.6968 22.1515 8.17115 21.5454 4.71594C21.2387 2.96764 19.7477 1.6185 17.8826 1.40152L16.7056 1.2646C12.9162 0.823748 9.08374 0.823748 5.29433 1.2646L4.11737 1.40152ZM10.9999 10.9379C10.4477 10.9379 9.99994 10.4902 9.99994 9.93787V5.93396C9.99994 5.38168 10.4477 4.93396 10.9999 4.93396C11.5522 4.93396 11.9999 5.38168 11.9999 5.93396V9.93787C11.9999 10.4902 11.5522 10.9379 10.9999 10.9379ZM12.2547 13.4339C12.2547 14.1243 11.695 14.6839 11.0047 14.6839C10.3143 14.6839 9.7547 14.1243 9.7547 13.4339C9.7547 12.7436 10.3143 12.184 11.0047 12.184C11.695 12.184 12.2547 12.7436 12.2547 13.4339Z" fill="#888888"/>
</svg>
