<svg width="24" height="24" viewBox="0 0 24 24" fill="none" xmlns="http://www.w3.org/2000/svg">
<path fill-rule="evenodd" clip-rule="evenodd" d="M22.4966 12C22.4966 17.7971 17.7971 22.4967 11.9999 22.4967C6.2028 22.4967 1.5033 17.7971 1.5033 12C1.5033 6.20287 6.2028 1.50336 11.9999 1.50336C17.7971 1.50336 22.4966 6.20287 22.4966 12ZM12 7C12.5523 7 13 7.44772 13 8V11H16C16.5523 11 17 11.4477 17 12C17 12.5523 16.5523 13 16 13H13V16C13 16.5523 12.5523 17 12 17C11.4477 17 11 16.5523 11 16V13H8C7.44771 13 7 12.5523 7 12C7 11.4477 7.44771 11 8 11H11V8C11 7.44772 11.4477 7 12 7Z" fill="black"/>
</svg>
