<svg width="24" height="24" viewBox="0 0 24 24" fill="none" xmlns="http://www.w3.org/2000/svg">
<path fill-rule="evenodd" clip-rule="evenodd" d="M22.4982 12.0017C22.4982 17.7997 17.798 22.5 11.9999 22.5C6.20185 22.5 1.50159 17.7997 1.50159 12.0017C1.50159 6.20362 6.20185 1.50336 11.9999 1.50336C17.798 1.50336 22.4982 6.20362 22.4982 12.0017ZM12 7.49048C10.8954 7.49048 10 8.38591 10 9.49048C10 10.0428 9.55229 10.4905 9 10.4905C8.44772 10.4905 8 10.0428 8 9.49048C8 7.28134 9.79086 5.49048 12 5.49048C14.2091 5.49048 16 7.28134 16 9.49048C16 11.3543 14.7252 12.9204 13 13.3645V14C13 14.5523 12.5523 15 12 15C11.4477 15 11 14.5523 11 14V12.4905C11 11.9382 11.4477 11.4905 12 11.4905C13.1046 11.4905 14 10.595 14 9.49048C14 8.38591 13.1046 7.49048 12 7.49048ZM12 18.5C12.6904 18.5 13.25 17.9404 13.25 17.25C13.25 16.5596 12.6904 16 12 16C11.3096 16 10.75 16.5596 10.75 17.25C10.75 17.9404 11.3096 18.5 12 18.5Z" fill="black"/>
</svg>
