<svg width="503" height="444" viewBox="0 0 503 444" fill="none" xmlns="http://www.w3.org/2000/svg">
<g clip-path="url(#clip0_6044_133438)">
<path d="M293.546 52.2598C289.742 45.9657 285.234 39.2454 278.174 37.1902C269.998 34.8102 261.599 39.5382 254.474 44.2039C233.169 58.1572 212.651 73.2788 193.016 89.4991L193.037 89.7434C208.324 88.6889 223.611 87.6344 238.899 86.5798C249.944 85.8179 261.368 84.951 271.129 79.7245C274.832 77.7412 278.443 75.092 282.64 74.9074C287.854 74.678 292.401 78.3209 295.974 82.1268C317.11 104.64 323.226 139.069 346.939 158.848C331.986 121.963 314.133 86.3214 293.546 52.2598Z" fill="#F2F2F2"/>
<path d="M423.465 243.214C421.128 240.262 420.173 239.57 417.867 236.591C399.095 212.304 381.45 187.198 364.934 161.271C353.715 143.662 343.052 125.715 332.946 107.43C328.135 98.7372 323.455 89.976 318.908 81.1467C315.379 74.3006 311.929 67.4136 308.558 60.4857C307.594 58.5069 306.657 56.519 305.725 54.5266C303.528 49.8413 301.373 45.1332 299.058 40.5115C296.42 35.244 293.21 29.7216 288.367 26.1826C286.162 24.5059 283.527 23.4914 280.768 23.2577C276.825 23.0029 273.187 24.6314 269.767 26.41C244.721 39.5803 221.344 55.7058 200.135 74.4416C178.894 93.102 159.908 114.184 143.564 137.257C143.064 137.971 141.881 137.289 142.386 136.57C144.373 133.759 146.4 130.978 148.466 128.228C174.156 94.0501 205.657 64.6592 241.527 41.3986C247.562 37.4866 253.71 33.758 259.972 30.2129C263.128 28.4252 266.297 26.6602 269.522 25.0045C272.682 23.3805 276.038 21.9203 279.649 21.8657C291.936 21.6747 298.299 35.5942 302.669 44.9604C304.042 47.908 305.432 50.8466 306.839 53.7761C312.155 64.8981 317.675 75.9185 323.401 86.8373C326.934 93.5788 330.545 100.281 334.233 106.943C345.711 127.691 357.911 148.018 370.832 167.926C387.949 194.295 404.929 217.59 424.429 242.25C424.966 242.932 424.006 243.906 423.465 243.214Z" fill="#E4E4E4"/>
<path d="M198.921 67.5681C198.207 66.7721 197.498 65.976 196.779 65.18C191.113 58.9116 185.033 52.716 177.252 49.1224C173.542 47.3548 169.492 46.4158 165.383 46.3704C161.135 46.384 156.984 47.4985 153.059 49.0588C151.204 49.8002 149.389 50.6418 147.602 51.5379C145.56 52.5659 143.555 53.6622 141.558 54.7676C137.811 56.8419 134.112 59.0071 130.462 61.2634C123.2 65.7531 116.165 70.5855 109.357 75.7606C105.828 78.4445 102.372 81.2163 98.9886 84.076C95.8417 86.7326 92.7585 89.4604 89.739 92.2594C89.0933 92.8554 88.1291 91.891 88.7748 91.2951C89.5707 90.5536 90.3756 89.8167 91.1805 89.0889C93.4543 87.0328 95.7645 85.0161 98.1111 83.0389C102.39 79.4271 106.78 75.9547 111.281 72.6219C118.279 67.4362 125.519 62.6023 133 58.1201C136.738 55.8821 140.527 53.738 144.369 51.688C145.528 51.0694 146.702 50.4644 147.888 49.8912C150.582 48.5324 153.38 47.393 156.256 46.4841C160.33 45.1657 164.641 44.7421 168.894 45.2422C173 45.8397 176.956 47.2087 180.554 49.2771C188.193 53.5485 194.119 60.1535 199.885 66.5992C200.467 67.2543 199.508 68.2232 198.921 67.5681Z" fill="#E4E4E4"/>
<path d="M355.458 132.525L373.765 125.827L382.854 122.502C385.815 121.418 388.768 120.186 391.828 119.41C394.488 118.65 397.311 118.686 399.95 119.514C402.304 120.385 404.459 121.721 406.286 123.442C408.152 125.161 409.889 127.017 411.482 128.993C413.461 131.372 415.411 133.775 417.369 136.171C425.452 146.059 433.482 155.99 441.459 165.964C449.436 175.938 457.36 185.954 465.23 196.012C473.12 206.095 480.956 216.221 488.737 226.388C489.69 227.633 490.642 228.88 491.594 230.126C492.12 230.815 493.305 230.136 492.772 229.438C484.933 219.168 477.04 208.94 469.092 198.755C461.125 188.545 453.103 178.378 445.025 168.255C436.948 158.132 428.816 148.053 420.63 138.018C418.59 135.518 416.547 133.02 414.501 130.526C412.775 128.421 411.068 126.294 409.175 124.336C405.7 120.741 401.358 117.564 396.161 117.477C393.106 117.427 390.149 118.397 387.31 119.424C384.249 120.532 381.196 121.66 378.139 122.778L359.704 129.523L355.095 131.209C354.278 131.508 354.631 132.827 355.458 132.525H355.458Z" fill="#E4E4E4"/>
<path d="M174.843 57.0098C165.54 52.227 153.626 53.1638 145.077 59.1391C161.383 61.9532 177.511 65.7185 193.378 70.4158C186.789 66.5534 181.635 60.5018 174.843 57.0098Z" fill="#F2F2F2"/>
<path d="M144.985 59.1226L143.194 60.5803C143.8 60.0701 144.43 59.5917 145.077 59.139C145.046 59.1338 145.016 59.1278 144.985 59.1226Z" fill="#F2F2F2"/>
<path d="M405.596 132.592C403.794 130.398 401.846 128.1 399.15 127.209L396.634 127.308C415.791 161.169 441.663 190.756 472.664 214.254C450.308 187.033 427.952 159.813 405.596 132.592Z" fill="#F2F2F2"/>
<path d="M290.383 311.849C290.315 311.849 290.248 311.837 290.185 311.814L241.694 293.995C241.551 293.943 241.434 293.835 241.37 293.697C241.306 293.558 241.299 293.4 241.352 293.257C241.405 293.113 241.512 292.997 241.651 292.933C241.789 292.869 241.947 292.862 242.091 292.915L290.581 310.733C290.708 310.78 290.815 310.87 290.882 310.987C290.949 311.104 290.973 311.241 290.95 311.374C290.926 311.507 290.856 311.628 290.753 311.715C290.649 311.801 290.518 311.849 290.383 311.849H290.383Z" fill="#222222"/>
<path d="M201.758 278.461C201.69 278.461 201.623 278.449 201.559 278.425L153.068 260.607C152.925 260.554 152.809 260.447 152.745 260.308C152.68 260.17 152.674 260.012 152.727 259.868C152.779 259.725 152.887 259.609 153.025 259.544C153.164 259.48 153.322 259.474 153.465 259.527L201.956 277.345C202.083 277.392 202.189 277.481 202.257 277.599C202.324 277.716 202.348 277.853 202.324 277.986C202.301 278.119 202.231 278.24 202.127 278.326C202.024 278.413 201.893 278.461 201.758 278.461H201.758Z" fill="#222222"/>
<path d="M111.406 245.073C111.338 245.073 111.271 245.061 111.208 245.037L62.7165 227.219C62.6456 227.193 62.5804 227.153 62.5249 227.102C62.4693 227.051 62.4244 226.989 62.3927 226.92C62.3609 226.852 62.343 226.778 62.34 226.702C62.3369 226.626 62.3487 226.551 62.3748 226.48C62.4008 226.409 62.4406 226.344 62.4918 226.288C62.543 226.233 62.6047 226.188 62.6732 226.156C62.7418 226.124 62.816 226.107 62.8915 226.104C62.967 226.1 63.0423 226.112 63.1132 226.138L111.604 243.957C111.731 244.003 111.838 244.093 111.905 244.21C111.972 244.328 111.996 244.465 111.972 244.598C111.949 244.731 111.879 244.851 111.776 244.938C111.672 245.025 111.541 245.073 111.406 245.073Z" fill="#222222"/>
<path d="M102.321 158.527C100.299 158.075 98.2516 157.718 96.23 157.469L95.9358 157.433C82.5146 155.834 71.1841 161.438 69.5805 170.468L69.2955 172.102C69.1174 173.135 68.9255 174.246 68.6972 175.475C68.5867 176.082 69.196 176.702 70.0825 176.901L392.868 249.077C415.662 254.007 438.382 258.877 460.394 263.551C464.513 264.483 468.686 265.158 472.888 265.573C479.177 266.105 483.781 265.404 486.965 263.428L486.966 263.428C490.923 260.98 491.919 257.006 492.732 252.446C494.369 243.237 496.114 233.568 497.852 223.929C499.383 215.433 500.911 206.96 502.359 198.845C503.21 194.027 503.672 189.71 500.703 185.667C497.482 181.293 490.585 177.899 480.202 175.577C480.077 175.549 479.952 175.521 479.825 175.494C447.257 168.351 412.137 174.026 392.434 189.615C390.166 191.41 387.984 193.387 385.873 195.299C382.751 198.261 379.424 200.999 375.916 203.492C373.979 204.826 371.925 205.979 369.778 206.938C369.63 207.01 369.463 207.085 369.288 207.152C368.883 207.335 368.463 207.505 368.059 207.65C365.708 208.557 363.266 209.213 360.776 209.606L360.528 209.643C360.34 209.675 360.138 209.704 359.937 209.727C358.51 209.919 357.073 210.032 355.633 210.066C349.411 210.244 342.636 209.105 335.496 206.68C328.908 204.417 322.614 201.373 316.748 197.613C310.524 193.633 304.87 189.141 299.402 184.797C297.001 182.889 294.516 180.916 292.02 179.014C291.55 178.656 291.089 178.306 290.619 177.954C287.562 175.669 284.762 173.72 282.061 171.997C275.429 167.744 268.234 164.443 260.685 162.191C252.707 159.871 245.36 159.238 238.856 160.305C237.05 160.601 235.27 161.037 233.532 161.612C225.519 164.258 219.768 169.522 214.206 174.612C207.288 180.944 200.134 187.492 188.533 189.121C175.146 191.006 157.551 185.045 145.548 178.837C141.775 176.885 138.041 174.775 134.431 172.734C132.973 171.91 131.513 171.089 130.051 170.271C127.177 168.667 124.815 167.403 122.616 166.29L121.921 165.936C121.534 165.742 121.147 165.547 120.751 165.356C118.132 164.068 115.672 162.965 113.226 161.983L112.648 161.748C111.485 161.296 110.393 160.892 109.317 160.517L108.887 160.368C106.733 159.636 104.541 159.021 102.321 158.527Z" fill="#F2F2F2"/>
<path d="M487.439 266.937C487.399 266.937 487.359 266.933 487.32 266.925L61.4584 177.003C61.3099 176.97 61.1801 176.88 61.0975 176.753C61.0149 176.625 60.9862 176.47 61.0176 176.321C61.049 176.172 61.138 176.042 61.2651 175.959C61.3923 175.875 61.5472 175.845 61.6962 175.876L487.558 265.798C487.697 265.828 487.82 265.908 487.904 266.023C487.988 266.138 488.026 266.28 488.012 266.421C487.997 266.563 487.93 266.694 487.825 266.789C487.719 266.884 487.582 266.937 487.439 266.937Z" fill="#222222"/>
<path d="M452.067 6.83311C437.843 4.90984 421.603 12.6004 417.917 26.4766C416.988 24.0094 415.298 21.9015 413.093 20.4575C410.888 19.0135 408.281 18.3081 405.649 18.4432C403.017 18.5783 400.496 19.5469 398.45 21.2092C396.404 22.8714 394.94 25.1411 394.268 27.6905L395.896 28.8571C426.378 35.4509 457.932 35.3082 488.353 28.439C478.459 18.0375 466.291 8.75631 452.067 6.83311Z" fill="#F0F0F0"/>
<path d="M391.065 45.9781C376.841 44.0549 360.602 51.7454 356.915 65.6216C355.986 63.1544 354.297 61.0465 352.092 59.6025C349.886 58.1585 347.279 57.4531 344.647 57.5882C342.015 57.7233 339.494 58.6919 337.448 60.3542C335.402 62.0164 333.938 64.2861 333.266 66.8355L334.895 68.0021C365.377 74.5959 396.931 74.4532 427.352 67.584C417.458 57.1825 405.289 47.9013 391.065 45.9781Z" fill="#F0F0F0"/>
<path d="M416.592 281.544C416.013 280.962 415.568 280.26 415.29 279.487C415.011 278.714 414.905 277.89 414.98 277.072C415.054 276.254 415.307 275.462 415.721 274.752C416.134 274.043 416.698 273.432 417.373 272.964L408.43 228.531L418.306 231.703L425.464 274.681C426.175 275.867 426.427 277.273 426.171 278.632C425.915 279.991 425.169 281.208 424.076 282.054C422.982 282.9 421.616 283.316 420.237 283.222C418.857 283.128 417.561 282.531 416.592 281.544Z" fill="#FFBE9D"/>
<path d="M403.387 187.536L409.514 182.909C409.514 182.909 414.92 182.526 415.877 192.277C416.834 202.028 418.8 221.031 418.8 221.031L428.177 264.472L415.197 267.322L405.154 220.441L399.13 206.52L403.387 187.536Z" fill="#2F2E41"/>
<path d="M413.489 258.47L378.959 257.894L376.082 234.292H413.489V258.47Z" fill="#FFBE9D"/>
<path d="M381.568 402.864L373.597 402.863L369.804 372.107L381.569 372.108L381.568 402.864Z" fill="#FFBE9D"/>
<path d="M432.351 391.818L424.38 391.762L420.803 360.981L431.171 363.36L432.351 391.818Z" fill="#FFBE9D"/>
<path d="M407.42 213.967L409.226 218.664L408.865 223.362L373.515 235.609L375.269 215.051L379.243 210.354L407.42 213.967Z" fill="#FFB6B6"/>
<path d="M392.255 171.694C399.227 171.694 404.88 166.04 404.88 159.065C404.88 152.091 399.227 146.437 392.255 146.437C385.282 146.437 379.629 152.091 379.629 159.065C379.629 166.04 385.282 171.694 392.255 171.694Z" fill="#FFBE9D"/>
<path d="M385.133 418.003H379.477L378.467 412.662L375.882 418.003H360.88C360.161 418.003 359.46 417.774 358.881 417.347C358.302 416.921 357.874 416.321 357.66 415.634C357.446 414.947 357.457 414.21 357.692 413.53C357.926 412.85 358.372 412.263 358.964 411.854L370.944 403.578V398.178L383.545 398.93L385.133 418.003Z" fill="#2F2E41"/>
<path d="M436.533 406.989L430.877 406.949L429.905 401.6L427.282 406.924L412.28 406.819C411.561 406.814 410.863 406.579 410.286 406.149C409.71 405.718 409.286 405.115 409.077 404.427C408.868 403.739 408.884 403.002 409.124 402.323C409.363 401.645 409.812 401.061 410.407 400.656L422.445 392.464L422.483 387.064L435.078 387.905L436.533 406.989Z" fill="#2F2E41"/>
<path d="M434.832 369.929L429.027 334.457L422.121 285.526C427.179 276.131 415.791 246.957 415.791 246.957L414.184 247.034L377.801 253.9L377.809 253.865C370.367 274.167 367.902 284.197 368.31 305.817L369.776 383.537H369.316C368.553 383.537 367.821 383.84 367.281 384.38C366.741 384.919 366.438 385.652 366.438 386.415C366.438 387.178 366.741 387.91 367.281 388.45C367.821 388.99 368.553 389.293 369.316 389.293H383.703C384.466 389.293 385.198 388.99 385.738 388.45C386.277 387.91 386.58 387.178 386.58 386.415C386.58 385.652 386.277 384.919 385.738 384.38C385.198 383.84 384.466 383.537 383.703 383.537H383.332L396.538 290.996L407.734 329.852L420.395 369.572C415.791 368.421 416.506 371.088 416.506 372.599C416.506 373.363 416.809 374.095 417.349 374.634C417.888 375.174 418.62 375.477 419.383 375.477H433.771C434.44 375.478 435.088 375.245 435.604 374.819C436.12 374.393 436.471 373.8 436.597 373.142C436.723 372.485 436.615 371.804 436.293 371.218C435.971 370.631 435.454 370.175 434.832 369.929Z" fill="#4A4A4A"/>
<path d="M418.623 248.468L417.472 236.955C417.353 236.486 417.088 236.066 416.715 235.756C416.342 235.446 415.881 235.263 415.398 235.231C414.918 229.747 412.901 206.086 412.78 205.055L412.775 205.011L411.858 185.405C411.824 184.693 411.53 184.018 411.031 183.51C410.532 183.001 409.863 182.694 409.152 182.648L404.306 182.331C404.239 182.329 404.176 182.301 404.13 182.253C404.084 182.205 404.058 182.141 404.058 182.075C404.058 181.539 403.952 181.009 403.748 180.515C403.543 180.02 403.243 179.571 402.864 179.192C402.486 178.813 402.036 178.513 401.542 178.308C401.048 178.103 400.518 177.998 399.982 177.998H385.635C384.706 177.998 383.808 178.338 383.112 178.953C382.415 179.568 381.967 180.417 381.851 181.339C381.844 181.403 381.814 181.461 381.766 181.504C381.719 181.546 381.657 181.569 381.593 181.567L381.591 181.567C379.961 181.533 378.373 182.086 377.114 183.123C375.856 184.161 375.012 185.615 374.734 187.223C372.772 198.638 368.841 224.548 370.785 238.952C371.462 243.967 370.003 239.995 369.747 244.191C369.722 244.596 369.777 245.003 369.909 245.387C370.04 245.771 370.247 246.125 370.516 246.43C369.332 246.774 368.872 248.054 369.176 249.26L368.924 249.197C369.073 249.79 369.451 250.298 369.976 250.611C370.5 250.924 371.127 251.017 371.719 250.867L415.803 239.751C417.036 239.44 418.934 249.701 418.623 248.468Z" fill="#2F2E41"/>
<path d="M370.102 281.544C370.681 280.962 371.125 280.26 371.404 279.487C371.682 278.714 371.788 277.89 371.714 277.072C371.639 276.254 371.386 275.462 370.973 274.752C370.559 274.043 369.995 273.432 369.321 272.964L378.264 228.531L368.388 231.703L361.229 274.681C360.518 275.867 360.267 277.273 360.523 278.632C360.779 279.991 361.524 281.208 362.618 282.054C363.712 282.9 365.077 283.316 366.457 283.222C367.836 283.128 369.133 282.531 370.102 281.544Z" fill="#FFBE9D"/>
<path d="M383.307 187.536L377.179 182.909C377.179 182.909 371.774 182.526 370.816 192.277C369.859 202.028 367.893 221.031 367.893 221.031L358.517 264.472L371.496 267.322L381.539 220.441L387.564 206.52L383.307 187.536Z" fill="#2F2E41"/>
<path d="M405.775 147.836C408.127 148.536 410.321 146.568 411.958 144.704L411.376 145.394C415.227 148.107 417.53 152.526 419.024 157C420.518 161.469 421.351 166.15 423.038 170.554C424.724 174.954 427.446 179.211 431.613 181.405C437.194 184.345 444.034 183.009 449.971 180.888C450.049 180.858 450.123 180.833 450.202 180.804C447.798 176.311 446.325 171.379 445.873 166.303C448.315 171.072 451.837 175.205 456.159 178.372C460.038 176.608 463.768 174.533 467.313 172.167C469.605 170.633 472.022 168.65 472.288 165.903C472.559 163.175 470.523 160.685 468.121 159.373C465.72 158.061 462.959 157.617 460.335 156.827C457.717 156.043 455.044 154.756 453.669 152.388C450.498 146.943 455.833 139.263 452.431 133.956C450.755 131.347 447.5 130.301 444.482 129.576C439.876 128.474 435.201 127.685 430.488 127.213C426.351 126.799 422.076 126.646 418.141 127.978C414.207 129.31 410.637 132.402 409.793 136.476C407.496 137.685 405.065 139.022 403.832 141.315C402.599 143.604 403.285 147.096 405.775 147.836Z" fill="#2F2E41"/>
<path d="M409.286 146.918C411.538 149.74 412.764 152.793 412.764 154.62C417.443 163.174 410.752 170.521 402.2 175.202C398.79 177.078 394.851 177.765 391.007 177.154L390.649 175.626L390.164 177.002C390.164 177.002 384.597 195.396 382.76 196.475C383.457 193.202 384.256 178.045 384.644 174.85C385.181 170.502 383.308 164.028 381.958 160.091C381.12 157.665 380.691 155.117 380.686 152.55V152.438L379.371 156.663L374.583 154.62C375.474 149.51 374.583 143.708 385.262 144.211C391.037 140.238 396.123 139.633 400.301 140.76C400.84 139.926 403.949 141.488 404.847 141.049" fill="#2F2E41"/>
<path d="M421.241 236.725C421.038 238.537 420.235 240.229 418.961 241.533C417.687 242.837 416.014 243.677 414.208 243.921L388.213 247.444C386.064 247.733 383.887 247.157 382.162 245.843C380.437 244.528 379.304 242.582 379.011 240.433L375.265 212.721C375.021 210.919 375.385 209.087 376.301 207.517L376.122 206.17C375.384 205.901 374.733 205.435 374.24 204.823C373.748 204.211 373.431 203.476 373.326 202.697C373.22 201.918 373.33 201.125 373.642 200.404C373.954 199.683 374.458 199.061 375.098 198.605L378.309 183.725C378.266 183.406 378.29 183.082 378.38 182.773C378.469 182.464 378.623 182.177 378.83 181.931C379.037 181.685 379.293 181.485 379.582 181.344C379.871 181.202 380.186 181.123 380.507 181.111C381.092 181.105 381.657 181.315 382.096 181.7C382.535 182.086 382.816 182.621 382.884 183.201L383.178 185.388C383.57 188.28 385.045 190.914 387.305 192.76C389.564 194.605 392.44 195.523 395.351 195.328C398.261 195.134 400.989 193.841 402.984 191.712C404.978 189.582 406.09 186.775 406.094 183.857C406.093 183.335 406.059 182.814 405.99 182.297L405.702 180.144C405.609 179.546 405.745 178.934 406.085 178.433C406.425 177.932 406.942 177.579 407.533 177.444C407.84 177.386 408.156 177.391 408.461 177.459C408.767 177.527 409.055 177.656 409.309 177.839C409.563 178.022 409.776 178.256 409.937 178.524C410.098 178.793 410.202 179.091 410.243 179.401L412.102 193.102C413.124 193.032 414.138 193.328 414.962 193.937C415.786 194.547 416.366 195.43 416.598 196.428C416.83 197.427 416.699 198.475 416.229 199.386C415.758 200.296 414.978 201.01 414.03 201.397C414.96 202.042 415.746 202.874 416.338 203.839C416.929 204.804 417.313 205.882 417.465 207.004L421.218 234.722C421.309 235.386 421.316 236.059 421.241 236.725Z" fill="#00852C"/>
<path d="M375.752 206.779C375.721 206.552 375.782 206.322 375.921 206.14C376.059 205.958 376.264 205.838 376.491 205.807L411.922 200.375C412.034 200.359 412.149 200.366 412.258 200.395C412.368 200.424 412.471 200.475 412.561 200.543C412.651 200.612 412.727 200.698 412.784 200.796C412.841 200.894 412.878 201.002 412.893 201.114C412.908 201.227 412.901 201.341 412.872 201.451C412.843 201.56 412.793 201.663 412.724 201.753C412.656 201.844 412.57 201.919 412.472 201.976C412.374 202.033 412.266 202.071 412.154 202.086L376.723 207.519C376.496 207.549 376.266 207.488 376.084 207.35C375.902 207.211 375.783 207.006 375.752 206.779Z" fill="#00511B"/>
<path d="M379.892 221.326L378.721 212.67C378.631 212.003 378.809 211.326 379.218 210.79C379.626 210.254 380.23 209.902 380.897 209.812L414.737 205.482C415.404 205.392 416.081 205.57 416.616 205.978C417.152 206.387 417.504 206.991 417.594 207.659L418.766 216.315C418.856 216.982 418.677 217.659 418.269 218.195C417.861 218.731 417.257 219.083 416.589 219.173L403.073 221.033C403.101 221.125 403.123 221.219 403.14 221.314L404.337 230.156L415.742 228.612C415.817 228.602 415.894 228.607 415.967 228.626C416.04 228.645 416.109 228.679 416.169 228.724C416.229 228.77 416.28 228.827 416.318 228.893C416.356 228.958 416.381 229.03 416.391 229.105C416.401 229.18 416.396 229.257 416.377 229.33C416.358 229.403 416.324 229.472 416.278 229.532C416.232 229.592 416.175 229.643 416.109 229.681C416.044 229.719 415.972 229.743 415.897 229.753L404.491 231.297L399.358 231.992L388.523 233.459C388.372 233.479 388.219 233.439 388.097 233.346C387.976 233.254 387.896 233.117 387.876 232.966C387.856 232.814 387.896 232.661 387.988 232.54C388.081 232.419 388.217 232.339 388.368 232.318L399.204 230.851L398.008 222.009C397.999 221.913 397.996 221.817 397.998 221.72L382.75 223.503C382.082 223.593 381.406 223.415 380.87 223.006C380.334 222.598 379.983 221.994 379.892 221.326Z" fill="#00511B"/>
<path d="M246.885 444C246.742 444 246.605 443.947 246.5 443.852L0.19022 221.768C0.0770758 221.666 0.00913435 221.523 0.00130845 221.37C-0.00651744 221.218 0.0464149 221.069 0.148483 220.956C0.25055 220.842 0.393415 220.774 0.545703 220.766C0.697991 220.758 0.847259 220.811 0.960732 220.912L247.27 442.996C247.357 443.074 247.418 443.177 247.445 443.29C247.472 443.403 247.464 443.522 247.422 443.631C247.381 443.74 247.307 443.833 247.211 443.899C247.115 443.965 247.001 444 246.885 444Z" fill="#222222"/>
<path d="M375.823 219.663C375.835 219.497 375.811 219.33 375.754 219.174C375.696 219.018 375.605 218.875 375.488 218.757C375.371 218.639 375.23 218.547 375.074 218.488C374.918 218.429 374.752 218.403 374.585 218.414C374.524 218.416 374.462 218.424 374.401 218.437L367.116 220.083C366.953 220.123 366.8 220.196 366.667 220.298C366.534 220.4 366.425 220.529 366.345 220.676C366.238 220.68 366.132 220.696 366.028 220.722C365.57 220.826 365.172 221.108 364.922 221.505C364.671 221.902 364.589 222.383 364.693 222.841C364.797 223.299 365.078 223.697 365.475 223.947C365.872 224.198 366.353 224.28 366.811 224.176C367.071 224.116 367.315 223.998 367.524 223.831L369.993 230.785C370.116 231.003 370.307 231.175 370.536 231.276C370.765 231.376 371.021 231.4 371.265 231.343L376.001 230.273C376.243 230.216 376.461 230.084 376.623 229.896C376.786 229.707 376.884 229.473 376.905 229.225L375.823 219.663ZM366.701 223.681C366.539 223.718 366.371 223.723 366.207 223.695C366.044 223.667 365.887 223.608 365.746 223.519C365.605 223.431 365.483 223.315 365.387 223.18C365.291 223.044 365.222 222.891 365.185 222.729C365.148 222.566 365.143 222.399 365.171 222.235C365.199 222.071 365.259 221.914 365.347 221.773C365.435 221.632 365.551 221.51 365.686 221.414C365.822 221.317 365.975 221.249 366.137 221.212C366.16 221.206 366.183 221.212 366.206 221.206C366.205 221.416 366.258 221.622 366.362 221.805L367.265 223.382C367.108 223.531 366.913 223.635 366.701 223.681Z" fill="#CCCCCC"/>
<path d="M374.586 218.414C374.655 219.335 373.078 220.394 370.966 220.814C369.026 221.211 367.288 220.935 366.799 220.21C366.898 220.151 367.004 220.109 367.116 220.083L374.401 218.437C374.462 218.424 374.524 218.416 374.586 218.414Z" fill="#E6E6E6"/>
<path d="M370.778 236.808L368.663 232.407C367.424 229.828 369.692 227.085 373.72 226.291L378.683 225.454L380.759 239.962L380.329 240.046C376.302 240.84 372.017 239.387 370.778 236.808Z" fill="#00852C"/>
<g opacity="0.2">
<path opacity="0.2" d="M421.24 236.725C421.037 238.537 420.235 240.229 418.961 241.533C417.687 242.837 416.014 243.677 414.208 243.921L388.213 247.444C386.669 247.653 385.097 247.416 383.683 246.761C382.269 246.107 381.071 245.061 380.231 243.748C380.964 242.862 381.872 242.137 382.897 241.618C383.923 241.099 385.045 240.797 386.193 240.732C388.426 240.617 390.59 241.359 392.777 241.774C398.064 242.771 403.534 241.863 408.217 239.212C410.249 238.032 412.079 236.524 414.311 235.684C416.544 234.849 419.428 234.878 421.045 236.507C421.114 236.575 421.18 236.648 421.24 236.725Z" fill="#00511B"/>
</g>
<path d="M385.15 133.812C386.973 133.578 388.262 131.91 388.029 130.086C387.795 128.262 386.128 126.973 384.304 127.207C382.481 127.441 381.192 129.109 381.425 130.933C381.659 132.757 383.326 134.046 385.15 133.812Z" fill="#00852C"/>
<path d="M379.96 96.0937C374.804 96.7917 371.116 101.528 371.704 106.698C371.71 106.746 371.752 107.081 371.808 107.519C371.891 108.162 372.225 108.745 372.737 109.141C373.25 109.537 373.898 109.714 374.541 109.631L374.541 109.631C374.859 109.59 375.166 109.487 375.445 109.328C375.723 109.168 375.968 108.955 376.164 108.701C376.36 108.446 376.504 108.156 376.588 107.846C376.672 107.536 376.694 107.213 376.653 106.894C376.615 106.596 376.588 106.39 376.587 106.377C376.484 105.58 376.591 104.769 376.897 104.025C377.203 103.282 377.697 102.63 378.331 102.136C378.965 101.641 379.716 101.32 380.512 101.203C381.307 101.087 382.12 101.18 382.868 101.473C383.617 101.766 384.276 102.249 384.782 102.875C385.287 103.5 385.621 104.246 385.751 105.04C385.881 105.833 385.802 106.647 385.522 107.401C385.241 108.155 384.77 108.823 384.154 109.339L384.155 109.34C384.155 109.34 380.991 112.002 380.33 115.181L380.331 115.182C380.226 115.829 380.216 116.488 380.299 117.139C380.334 117.406 380.649 119.745 380.923 121.64C381.017 122.294 381.365 122.885 381.891 123.284C382.417 123.684 383.079 123.861 383.735 123.777L383.735 123.777C384.064 123.735 384.382 123.628 384.669 123.462C384.957 123.297 385.209 123.076 385.412 122.813C385.614 122.549 385.762 122.249 385.847 121.928C385.933 121.607 385.954 121.272 385.91 120.943C385.677 119.205 385.412 117.18 385.393 117.033C385.153 115.163 386.718 113.069 388.044 111.664C389.571 110.047 390.554 107.983 390.772 105.769C390.824 105.312 390.826 104.851 390.778 104.394C390.617 103.136 390.209 101.923 389.577 100.824C388.945 99.7256 388.102 98.7627 387.097 97.9912C386.091 97.2197 384.943 96.6548 383.718 96.3292C382.493 96.0035 381.216 95.9235 379.96 96.0937Z" fill="#00852C"/>
</g>
<defs>
<clipPath id="clip0_6044_133438">
<rect width="503" height="444" fill="white"/>
</clipPath>
</defs>
</svg>
