<svg width="35" height="36" viewBox="0 0 35 36" fill="none" xmlns="http://www.w3.org/2000/svg">
<path d="M15.7917 0.916992H12.375V7.75033H15.7917V0.916992Z" fill="#3A3A3A"/>
<path fill-rule="evenodd" clip-rule="evenodd" d="M14.0833 35.0837C20.4514 35.0837 25.8023 30.7282 27.3194 24.8337H29.4583C32.2888 24.8337 34.5833 22.5391 34.5833 19.7087C34.5833 16.8782 32.2888 14.5837 29.4583 14.5837H27.75C27.75 12.6967 26.2203 11.167 24.3333 11.167H3.83332C1.94635 11.167 0.416656 12.6967 0.416656 14.5837V21.417C0.416656 28.9649 6.53543 35.0837 14.0833 35.0837ZM24.3333 14.5837H3.83332V21.417C3.83332 27.0779 8.4224 31.667 14.0833 31.667C19.7442 31.667 24.3333 27.0779 24.3333 21.417V14.5837ZM27.75 21.417V18.0003H29.4583C30.4018 18.0003 31.1667 18.7652 31.1667 19.7087C31.1667 20.6521 30.4018 21.417 29.4583 21.417H27.75Z" fill="#3A3A3A"/>
<path d="M19.2083 7.75033V4.33366H22.625V7.75033H19.2083Z" fill="#3A3A3A"/>
<path d="M5.54166 4.33366V7.75033H8.95832V4.33366H5.54166Z" fill="#3A3A3A"/>
</svg>
