<svg width="14" height="14" viewBox="0 0 14 14" fill="none" xmlns="http://www.w3.org/2000/svg">
<path d="M12.334 1.53451H7.00064V2.86784H5.6673V1.53451C5.6673 0.798126 6.26426 0.201172 7.00064 0.201172H12.334C13.0703 0.201172 13.6673 0.798126 13.6673 1.53451V12.2012C13.6673 12.9376 13.0703 13.5345 12.334 13.5345H7.00064C6.26426 13.5345 5.6673 12.9376 5.6673 12.2012V10.8678H7.00064V12.2012H12.334V1.53451Z" fill="#CD2026"/>
<path d="M0.575741 7.49168C0.253398 7.14565 0.253399 6.59003 0.575742 6.244L2.47872 4.20117L3.66732 5.45825L2.96486 6.20117L10.334 6.20117V7.53451L2.96486 7.53451L3.66732 8.27743L2.47872 9.53451L0.575741 7.49168Z" fill="#CD2026"/>
</svg>
