<svg width="23" height="11" viewBox="0 0 23 11" fill="none" xmlns="http://www.w3.org/2000/svg">
<g clip-path="url(#clip0_190_2851)">
<path d="M8.33459 8.08154L8.33672 8.08379V8.08154H8.33459Z" fill="white"/>
<path d="M4.66482 1.39213C5.17382 1.39313 5.67654 1.50198 6.1382 1.71114C7.4149 2.29054 7.64663 2.46017 8.33468 3.46538C9.21584 4.75123 9.21584 4.88454 9.65357 5.67546C9.83667 6.00565 10.2472 6.77073 10.5576 6.87333C10.6322 6.89644 10.7113 6.90217 10.7886 6.89004C10.8658 6.87792 10.9391 6.84829 11.0025 6.80354C11.0885 6.75746 11.1677 6.70017 11.2378 6.63321L12.0768 5.9519C12.2384 5.81717 12.3064 5.73898 12.4559 5.67267C12.5806 5.61473 12.7222 5.60165 12.8558 5.63575C12.9895 5.66985 13.1064 5.74894 13.1861 5.85904C13.2429 5.92504 13.291 5.99775 13.3292 6.07546L13.94 7.34035C13.9552 7.37798 13.9751 7.41363 13.9993 7.44646C14.3298 7.88554 14.8319 8.2946 15.3926 8.2946H16.4583C16.7413 8.29519 17.0187 8.21813 17.259 8.07223C17.4993 7.92635 17.6927 7.7175 17.8172 7.46948L20.9707 1.08358C21.0587 0.908419 21.1954 0.760871 21.365 0.657709C21.5347 0.554547 21.7306 0.499908 21.9305 0.5C22.1123 0.499918 22.2908 0.545027 22.4496 0.631064C22.6084 0.717102 22.7423 0.841227 22.8382 0.991721C22.9341 1.14221 22.9893 1.31411 22.9983 1.49116C23.0073 1.66822 22.9698 1.84459 22.8897 2.00363L19.2706 9.29563C19.0883 9.657 18.8059 9.96133 18.4555 10.1741C18.1051 10.387 17.7007 10.4998 17.288 10.4998H14.8476C14.601 10.4999 14.3568 10.4524 14.1291 10.36C13.9014 10.2677 13.6947 10.1323 13.5208 9.96158L12.983 9.43525C12.8491 9.30396 12.6702 9.22563 12.4808 9.21531C12.2913 9.205 12.1046 9.26344 11.9566 9.3794L11.1277 9.84919C10.4654 10.0544 10.1707 9.90225 9.9175 9.80521C7.6831 8.94729 8.12297 5.0849 5.76915 4.06223C5.42106 3.91371 5.04612 3.83444 4.66625 3.82908C2.96328 3.82908 2.28954 5.33829 2.28954 6.06288V9.38079C2.28954 9.67702 2.16897 9.96111 1.95436 10.1706C1.73975 10.38 1.44867 10.4977 1.14516 10.4977C0.841659 10.4977 0.550584 10.38 0.335972 10.1706C0.121361 9.96111 0.000793457 9.67702 0.000793457 9.38079V5.94492C0.000793457 5.64196 0.0322638 4.02873 1.3676 2.72544C2.70294 1.42215 4.35441 1.39213 4.66482 1.39213Z" fill="white"/>
<path d="M6.17318 4.27974C6.13671 4.25601 2.45397 1.45536 0.172371 4.75232C0.0615497 5.14065 0.00359494 5.54153 0 5.94463V9.38119C0 9.67742 0.120567 9.96151 0.335178 10.171C0.54979 10.3804 0.840867 10.4981 1.14437 10.4981C1.44788 10.4981 1.73895 10.3804 1.95357 10.171C2.16818 9.96151 2.28874 9.67742 2.28874 9.38119V6.0633C2.28874 5.3373 2.96249 3.82949 4.66547 3.82949C5.04489 3.83407 5.41957 3.91238 5.76763 4.05984" fill="white"/>
<path d="M10.4589 9.09042C11.7084 8.5934 11.6154 7.50931 12.4951 7.55469C13.3749 7.60006 13.9163 8.52779 15.2566 8.29044C14.7517 8.23111 14.3032 7.85415 14.0007 7.45277C13.9765 7.41994 13.9565 7.38429 13.9413 7.34667L13.3255 6.08038C13.2873 6.00267 13.2393 5.92996 13.1825 5.86396C13.1028 5.75386 12.9858 5.67477 12.8522 5.64067C12.7186 5.60656 12.5769 5.61965 12.4522 5.67758C12.3027 5.7425 12.2376 5.82069 12.0731 5.95681L11.2342 6.63813C11.164 6.70508 11.0849 6.76238 10.9989 6.80846C10.9355 6.85321 10.8622 6.88283 10.7849 6.89496C10.7077 6.90708 10.6286 6.90136 10.554 6.87825C10.3845 6.82242 10.1856 6.56831 10.0097 6.29606L8.33176 8.08661C8.34464 8.09848 9.21507 9.58467 10.4589 9.09042Z" fill="white"/>
<path d="M19.2705 9.28864L22.8868 2.00363C22.9669 1.84459 23.0044 1.66822 22.9954 1.49116C22.9864 1.31411 22.9312 1.14221 22.8353 0.991721C22.7393 0.841227 22.6055 0.7171 22.4467 0.631063C22.2879 0.545026 22.1094 0.499918 21.9275 0.5C21.7277 0.499908 21.5318 0.554547 21.3621 0.657709C21.1924 0.760871 21.0558 0.908419 20.9678 1.08358L17.8143 7.46948C17.7914 7.51556 17.765 7.55954 17.7378 7.60281L16.9396 9.18394C16.9396 9.18394 16.6156 10.1361 15.2731 10.4907H17.2879C17.7004 10.4909 18.1047 10.3784 18.4551 10.166C18.8054 9.95352 19.0879 9.64962 19.2705 9.28864Z" fill="white"/>
</g>
<defs>
<clipPath id="clip0_190_2851">
<rect width="23" height="10" fill="white" transform="translate(0 0.5)"/>
</clipPath>
</defs>
</svg>
