<svg width="226" height="97" viewBox="0 0 226 97" fill="none" xmlns="http://www.w3.org/2000/svg">
<g clip-path="url(#clip0_684_5494)">
<path d="M93.1064 48.5C93.1064 23.0949 72.5115 2.5 47.1064 2.5C21.7013 2.5 1.10645 23.0949 1.10645 48.5C1.10645 73.9051 21.7013 94.5 47.1064 94.5C72.5115 94.5 93.1064 73.9051 93.1064 48.5Z" stroke="#0E461F" stroke-width="4"/>
<path d="M119.769 39.6386V58.123H116.582L108.292 44.8818V58.123H105.106V39.6386H108.292L116.608 52.9052V39.6386H119.769ZM134.125 54.8857V44.3867H137.197V58.123H134.303L134.125 54.8857ZM134.556 52.0292L135.585 52.0039C135.585 52.9264 135.483 53.777 135.28 54.5556C135.077 55.3258 134.764 55.9987 134.341 56.5742C133.917 57.1412 133.376 57.5856 132.716 57.9072C132.056 58.2203 131.264 58.3769 130.342 58.3769C129.673 58.3769 129.059 58.2796 128.501 58.0849C127.942 57.8903 127.46 57.5898 127.054 57.1835C126.656 56.7773 126.347 56.2483 126.127 55.5966C125.907 54.9449 125.797 54.1663 125.797 53.2607V44.3867H128.856V53.2861C128.856 53.7854 128.916 54.2044 129.034 54.5429C129.153 54.873 129.313 55.1396 129.516 55.3427C129.72 55.5459 129.957 55.6897 130.227 55.7744C130.498 55.859 130.786 55.9013 131.091 55.9013C131.962 55.9013 132.648 55.732 133.147 55.3935C133.655 55.0465 134.015 54.581 134.226 53.997C134.446 53.413 134.556 52.7571 134.556 52.0292ZM150.639 54.4033C150.639 54.0986 150.563 53.8235 150.41 53.5781C150.258 53.3242 149.966 53.0957 149.534 52.8925C149.111 52.6894 148.485 52.5032 147.656 52.3339C146.928 52.1731 146.259 51.9827 145.65 51.7626C145.049 51.5341 144.532 51.2591 144.101 50.9375C143.669 50.6158 143.335 50.235 143.098 49.7949C142.861 49.3548 142.742 48.847 142.742 48.2714C142.742 47.7128 142.865 47.1839 143.111 46.6845C143.356 46.1852 143.707 45.7451 144.164 45.3642C144.621 44.9834 145.176 44.6829 145.827 44.4628C146.488 44.2428 147.224 44.1328 148.036 44.1328C149.187 44.1328 150.173 44.3274 150.994 44.7168C151.824 45.0976 152.459 45.6181 152.899 46.2783C153.339 46.93 153.559 47.6663 153.559 48.4873H150.499C150.499 48.1233 150.406 47.7848 150.22 47.4716C150.042 47.15 149.771 46.8919 149.407 46.6972C149.044 46.4941 148.587 46.3925 148.036 46.3925C147.512 46.3925 147.076 46.4772 146.729 46.6464C146.39 46.8072 146.136 47.0188 145.967 47.2812C145.806 47.5436 145.726 47.8313 145.726 48.1445C145.726 48.373 145.768 48.5804 145.853 48.7666C145.946 48.9443 146.098 49.1093 146.31 49.2617C146.521 49.4056 146.809 49.541 147.173 49.6679C147.545 49.7949 148.011 49.9176 148.57 50.0361C149.619 50.2561 150.52 50.5397 151.274 50.8867C152.035 51.2252 152.619 51.6653 153.026 52.207C153.432 52.7402 153.635 53.4173 153.635 54.2382C153.635 54.8476 153.504 55.4062 153.241 55.914C152.988 56.4134 152.615 56.8492 152.124 57.2216C151.633 57.5856 151.045 57.8691 150.36 58.0722C149.683 58.2753 148.921 58.3769 148.074 58.3769C146.83 58.3769 145.777 58.1569 144.913 57.7168C144.05 57.2682 143.394 56.6969 142.946 56.0029C142.505 55.3004 142.285 54.5725 142.285 53.8193H145.243C145.277 54.3863 145.434 54.8391 145.713 55.1777C146.001 55.5078 146.356 55.749 146.78 55.9013C147.211 56.0452 147.656 56.1171 148.113 56.1171C148.663 56.1171 149.124 56.0452 149.496 55.9013C149.869 55.749 150.152 55.5459 150.347 55.2919C150.542 55.0296 150.639 54.7334 150.639 54.4033ZM166.658 55.3681V48.8173C166.658 48.3265 166.569 47.9033 166.391 47.5478C166.214 47.1923 165.943 46.9173 165.579 46.7226C165.223 46.5279 164.775 46.4306 164.233 46.4306C163.734 46.4306 163.302 46.5153 162.938 46.6845C162.574 46.8538 162.291 47.0823 162.088 47.3701C161.884 47.6578 161.783 47.9837 161.783 48.3476H158.736C158.736 47.8059 158.867 47.2812 159.13 46.7734C159.392 46.2656 159.773 45.8128 160.272 45.415C160.771 45.0172 161.368 44.7041 162.062 44.4755C162.756 44.247 163.535 44.1328 164.398 44.1328C165.431 44.1328 166.345 44.3063 167.14 44.6533C167.944 45.0003 168.575 45.525 169.032 46.2275C169.497 46.9215 169.73 47.7932 169.73 48.8427V54.9492C169.73 55.5755 169.772 56.1383 169.857 56.6376C169.95 57.1285 170.081 57.5559 170.251 57.9199V58.123H167.115C166.971 57.7929 166.857 57.374 166.772 56.8662C166.696 56.3499 166.658 55.8505 166.658 55.3681ZM167.102 49.7695L167.128 51.6611H164.931C164.364 51.6611 163.865 51.7161 163.433 51.8261C163.002 51.9277 162.642 52.08 162.354 52.2832C162.066 52.4863 161.851 52.7317 161.707 53.0195C161.563 53.3072 161.491 53.6331 161.491 53.997C161.491 54.361 161.576 54.6953 161.745 55C161.914 55.2962 162.159 55.5289 162.481 55.6982C162.811 55.8675 163.209 55.9521 163.674 55.9521C164.301 55.9521 164.847 55.8251 165.312 55.5712C165.786 55.3089 166.159 54.9915 166.429 54.6191C166.7 54.2382 166.844 53.8785 166.861 53.54L167.851 54.8984C167.75 55.2454 167.576 55.6178 167.331 56.0156C167.085 56.4134 166.764 56.7942 166.366 57.1582C165.977 57.5136 165.507 57.8056 164.957 58.0341C164.415 58.2626 163.789 58.3769 163.078 58.3769C162.181 58.3769 161.381 58.1992 160.678 57.8437C159.976 57.4798 159.426 56.9931 159.028 56.3837C158.63 55.7659 158.431 55.0677 158.431 54.289C158.431 53.5612 158.567 52.9179 158.838 52.3593C159.117 51.7923 159.523 51.3183 160.056 50.9375C160.598 50.5566 161.258 50.2688 162.037 50.0742C162.815 49.871 163.704 49.7695 164.703 49.7695H167.102ZM178.551 38.623V58.123H175.504V38.623H178.551ZM178.018 50.747L177.027 50.7343C177.036 49.7864 177.167 48.9104 177.421 48.1064C177.683 47.3024 178.047 46.6041 178.513 46.0117C178.987 45.4108 179.554 44.9495 180.214 44.6279C180.874 44.2978 181.606 44.1328 182.41 44.1328C183.087 44.1328 183.697 44.2259 184.238 44.4121C184.788 44.5983 185.262 44.8987 185.66 45.3134C186.058 45.7197 186.358 46.2529 186.562 46.913C186.773 47.5647 186.879 48.3603 186.879 49.2998V58.123H183.807V49.2744C183.807 48.6142 183.709 48.0895 183.515 47.7001C183.328 47.3108 183.053 47.0315 182.69 46.8623C182.326 46.6845 181.881 46.5957 181.356 46.5957C180.806 46.5957 180.32 46.7057 179.897 46.9257C179.482 47.1458 179.135 47.4462 178.856 47.8271C178.576 48.208 178.365 48.6481 178.221 49.1474C178.085 49.6468 178.018 50.18 178.018 50.747ZM195.852 44.3867V58.123H192.78V44.3867H195.852ZM192.577 40.7812C192.577 40.3157 192.729 39.9306 193.034 39.6259C193.347 39.3128 193.778 39.1562 194.329 39.1562C194.87 39.1562 195.298 39.3128 195.611 39.6259C195.924 39.9306 196.081 40.3157 196.081 40.7812C196.081 41.2382 195.924 41.6191 195.611 41.9238C195.298 42.2285 194.87 42.3808 194.329 42.3808C193.778 42.3808 193.347 42.2285 193.034 41.9238C192.729 41.6191 192.577 41.2382 192.577 40.7812ZM204.876 47.0019V58.123H201.816V44.3867H204.736L204.876 47.0019ZM209.078 44.2978L209.053 47.1416C208.866 47.1077 208.663 47.0823 208.443 47.0654C208.232 47.0485 208.02 47.04 207.808 47.04C207.284 47.04 206.822 47.1162 206.425 47.2685C206.027 47.4124 205.693 47.624 205.422 47.9033C205.159 48.1741 204.956 48.5042 204.812 48.8935C204.668 49.2828 204.584 49.7187 204.558 50.2011L203.86 50.2519C203.86 49.3886 203.945 48.5888 204.114 47.8525C204.283 47.1162 204.537 46.4687 204.876 45.9101C205.223 45.3515 205.654 44.9156 206.171 44.6025C206.695 44.2893 207.301 44.1328 207.986 44.1328C208.172 44.1328 208.371 44.1497 208.583 44.1835C208.803 44.2174 208.968 44.2555 209.078 44.2978ZM219.397 58.3769C218.381 58.3769 217.463 58.2119 216.642 57.8818C215.829 57.5432 215.135 57.0735 214.56 56.4726C213.993 55.8717 213.557 55.165 213.252 54.3525C212.948 53.54 212.795 52.664 212.795 51.7246V51.2168C212.795 50.1419 212.952 49.1686 213.265 48.2968C213.578 47.4251 214.014 46.6803 214.573 46.0625C215.131 45.4362 215.791 44.958 216.553 44.6279C217.315 44.2978 218.14 44.1328 219.029 44.1328C220.01 44.1328 220.869 44.2978 221.606 44.6279C222.342 44.958 222.951 45.4235 223.434 46.0244C223.925 46.6168 224.289 47.3235 224.526 48.1445C224.771 48.9654 224.894 49.871 224.894 50.8613V52.1689H214.281V49.9726H221.872V49.7314C221.855 49.1813 221.745 48.665 221.542 48.1826C221.348 47.7001 221.047 47.3108 220.641 47.0146C220.235 46.7184 219.693 46.5703 219.016 46.5703C218.508 46.5703 218.055 46.6803 217.657 46.9003C217.268 47.1119 216.942 47.4209 216.68 47.8271C216.418 48.2334 216.214 48.7242 216.071 49.2998C215.935 49.8668 215.867 50.5058 215.867 51.2168V51.7246C215.867 52.3255 215.948 52.8841 216.109 53.4003C216.278 53.9082 216.523 54.3525 216.845 54.7334C217.167 55.1142 217.556 55.4147 218.013 55.6347C218.47 55.8463 218.99 55.9521 219.574 55.9521C220.311 55.9521 220.967 55.804 221.542 55.5078C222.118 55.2115 222.617 54.7926 223.04 54.2509L224.653 55.8125C224.356 56.2441 223.971 56.6588 223.497 57.0566C223.023 57.4459 222.444 57.7633 221.758 58.0087C221.081 58.2542 220.294 58.3769 219.397 58.3769Z" fill="#333333"/>
<path d="M48.348 41.5C53.8413 41.5 58.2946 37.0228 58.2946 31.5C58.2946 25.9772 53.8413 21.5 48.348 21.5C42.8546 21.5 38.4014 25.9772 38.4014 31.5C38.4014 37.0228 42.8546 41.5 48.348 41.5Z" fill="#1B6136"/>
<path d="M71.1468 38.4466C71.9397 38.2013 72.53 39.1879 71.9433 39.7777L58.5658 53.2269C58.3944 53.3992 58.3102 53.641 58.3376 53.8832L60.6834 74.64C60.7357 75.1035 60.3846 75.5134 59.9209 75.5296L46.3589 75.9994H35.3953C34.8927 75.9992 34.5158 75.5366 34.6153 75.0414L38.8698 53.9291C38.9237 53.6617 38.8385 53.3853 38.6435 53.1957L24.8776 39.8226C24.2763 39.2378 24.8654 38.2353 25.6653 38.4828L48.1141 45.4271C48.2664 45.4742 48.429 45.4741 48.5814 45.4271L71.1468 38.4466Z" fill="#1B6136"/>
<path d="M46.3584 47.5L48.3477 45.5L50.337 47.5V61.5L48.3477 63.5L46.3584 61.5V47.5Z" fill="white"/>
</g>
<defs>
<clipPath id="clip0_684_5494">
<rect width="225.788" height="96" fill="white" transform="translate(0.106445 0.5)"/>
</clipPath>
</defs>
</svg>
