<svg width="13" height="13" viewBox="0 0 13 13" fill="none" xmlns="http://www.w3.org/2000/svg">
<path fill-rule="evenodd" clip-rule="evenodd" d="M12.74 6.64741C12.74 6.18651 12.6986 5.74332 12.6218 5.31787H6.5V7.83219H9.99818C9.84749 8.64468 9.38954 9.33309 8.70113 9.794V11.4249H10.8018C12.0309 10.2933 12.74 8.62696 12.74 6.64741Z" fill="#4285F4"/>
<path fill-rule="evenodd" clip-rule="evenodd" d="M6.49973 12.9999C8.25472 12.9999 9.72609 12.4178 10.8015 11.4251L8.70086 9.79418C8.11882 10.1842 7.37427 10.4146 6.49973 10.4146C4.80678 10.4146 3.37382 9.27122 2.86269 7.73486H0.691101V9.41895C1.76064 11.5433 3.95882 12.9999 6.49973 12.9999Z" fill="#34A853"/>
<path fill-rule="evenodd" clip-rule="evenodd" d="M2.86295 7.73319C2.73295 7.34319 2.65909 6.9266 2.65909 6.49819C2.65909 6.06978 2.73295 5.65319 2.86295 5.26319V3.5791H0.691363C0.251136 4.4566 0 5.44933 0 6.49819C0 7.54705 0.251136 8.53978 0.691363 9.41727L2.86295 7.73319Z" fill="#FBBC05"/>
<path fill-rule="evenodd" clip-rule="evenodd" d="M6.49973 2.58522C7.45404 2.58522 8.31086 2.91318 8.9845 3.55727L10.8488 1.69295C9.72313 0.64409 8.25177 0 6.49973 0C3.95882 0 1.76064 1.45659 0.691101 3.5809L2.86269 5.26499C3.37382 3.72863 4.80678 2.58522 6.49973 2.58522Z" fill="#EA4335"/>
</svg>
