<svg width="22" height="16" viewBox="0 0 22 16" fill="none" xmlns="http://www.w3.org/2000/svg">
<path d="M21 0C21.5523 1.61064e-08 22 0.447715 22 1V15C22 15.5523 21.5523 16 21 16H1L0.897461 15.9951C0.393331 15.9438 0 15.5177 0 15V1C0 0.447715 0.447715 1.93276e-07 1 0H21ZM2.73047 2C2.5551 2.30282 2.30278 2.55405 2 2.72949V13.2695C2.30296 13.445 2.55501 13.697 2.73047 14H19.2695C19.445 13.697 19.697 13.445 20 13.2695V2.72949C19.6972 2.55405 19.4449 2.30282 19.2695 2H2.73047ZM12 4H13C13.5523 4 14 4.44771 14 5C14 5.55228 13.5523 6 13 6H10V7H12C13.1046 7 14 7.89543 14 9V10C14 11.1046 13.1046 12 12 12V13H10V12H9C8.44772 12 8 11.5523 8 11C8 10.4477 8.44771 10 9 10H12V9H10C8.89543 9 8 8.10457 8 7V6C8 4.89543 8.89543 4 10 4V3H12V4Z" fill="#336AFF"/>
</svg>
