<svg width="24" height="24" viewBox="0 0 24 24" fill="none" xmlns="http://www.w3.org/2000/svg">
<path fill-rule="evenodd" clip-rule="evenodd" d="M1 6.73244V5C1 4.44772 1.44772 4 2 4H3.73244H20.2676H22C22.5523 4 23 4.44772 23 5V6.73244V17.2676V19C23 19.5523 22.5523 20 22 20H20.2676H3.73244H2C1.44772 20 1 19.5523 1 19V17.2676V6.73244ZM3.73244 18C3.5568 17.6964 3.30363 17.4432 3 17.2676V6.73244C3.30363 6.5568 3.5568 6.30363 3.73244 6H20.2676C20.4432 6.30363 20.6964 6.5568 21 6.73244V17.2676C20.6964 17.4432 20.4432 17.6964 20.2676 18H3.73244ZM13 7H11V8C9.89543 8 9 8.89543 9 10V11C9 12.1046 9.89543 13 11 13H13V14H10C9.44771 14 9 14.4477 9 15C9 15.5523 9.44772 16 10 16H11V17H13V16C14.1046 16 15 15.1046 15 14V13C15 11.8954 14.1046 11 13 11H11V10H14C14.5523 10 15 9.55228 15 9C15 8.44771 14.5523 8 14 8H13V7Z" fill="#336AFF"/>
</svg>
