<svg width="15" height="15" viewBox="0 0 15 15" fill="none" xmlns="http://www.w3.org/2000/svg">
<path d="M6.30982 7.61596C6.04947 7.87631 6.04947 8.29842 6.30982 8.55877C6.57017 8.81912 6.99228 8.81912 7.25263 8.55877L9.88579 5.9256V7.14456C9.88579 7.51275 10.1843 7.81122 10.5525 7.81122C10.9207 7.81122 11.2191 7.51275 11.2191 7.14456V4.31613C11.2191 4.22502 11.2008 4.13817 11.1678 4.05907C11.1365 3.98413 11.0909 3.91375 11.0311 3.85207L11.0233 3.84411L11.0165 3.83749C10.8965 3.72111 10.7328 3.64946 10.5525 3.64946L7.72403 3.64946C7.35584 3.64946 7.05737 3.94794 7.05737 4.31613C7.05737 4.68432 7.35584 4.9828 7.72403 4.9828L8.94298 4.9828L6.30982 7.61596Z" fill="#00852C"/>
<path fill-rule="evenodd" clip-rule="evenodd" d="M3.42785 3.20804C3.59417 2.04382 4.50891 1.12907 5.67313 0.962756C7.65886 0.679081 9.67483 0.679081 11.6606 0.962756C12.8248 1.12907 13.7395 2.04382 13.9058 3.20804C14.1895 5.19377 14.1895 7.20973 13.9058 9.19546C13.7395 10.3597 12.8248 11.2744 11.6606 11.4407C9.67483 11.7244 7.65886 11.7244 5.67313 11.4407C4.50891 11.2744 3.59417 10.3597 3.42785 9.19546C3.14417 7.20973 3.14417 5.19377 3.42785 3.20804ZM11.4823 10.1927C9.61479 10.4595 7.71889 10.4595 5.85142 10.1927C5.24189 10.1056 4.76296 9.62671 4.67589 9.01717C4.40911 7.1497 4.40911 5.2538 4.67589 3.38633C4.76296 2.77679 5.24189 2.29787 5.85142 2.21079C7.71889 1.94401 9.61479 1.94401 11.4823 2.21079C12.0918 2.29787 12.5707 2.77679 12.6578 3.38633C12.9246 5.2538 12.9246 7.1497 12.6578 9.01717C12.5707 9.62671 12.0918 10.1056 11.4823 10.1927Z" fill="#00852C"/>
<path d="M0.968467 5.86917C1.33624 5.85166 1.64858 6.1356 1.66609 6.50337L1.79763 9.26575C1.89571 11.3253 3.54327 12.9729 5.60284 13.071L8.36522 13.2025C8.73299 13.22 9.01693 13.5324 8.99942 13.9001C8.98191 14.2679 8.66957 14.5518 8.3018 14.5343L5.53942 14.4028C2.79333 14.272 0.596573 12.0753 0.465806 9.32917L0.334265 6.56679C0.316752 6.19902 0.600693 5.88668 0.968467 5.86917Z" fill="#00852C"/>
</svg>
