<svg width="24" height="24" viewBox="0 0 24 24" fill="none" xmlns="http://www.w3.org/2000/svg">
<path d="M11.9999 1C9.98096 0.999921 7.96203 1.14302 5.95837 1.4293C3.6099 1.76485 1.76463 3.61064 1.42919 5.95912C0.856938 9.96548 0.856938 14.0344 1.42919 18.0408C1.76463 20.3892 3.6099 22.235 5.95837 22.5706C7.96203 22.8569 9.98096 23 11.9999 22.9999V1Z" fill="#033D24"/>
<path d="M11.9999 1C14.0188 0.999921 16.0377 1.14302 18.0414 1.4293C20.3899 1.76485 22.2351 3.61064 22.5706 5.95912C23.1428 9.96548 23.1428 14.0344 22.5706 18.0408C22.2351 20.3892 20.3899 22.235 18.0414 22.5706C16.0377 22.8569 14.0188 23 11.9999 22.9999V1Z" fill="#033D24"/>
<path d="M11.9966 1H12.0032C14.021 1.00008 16.0388 1.14318 18.0414 1.4293C20.3899 1.76485 22.2351 3.61064 22.5706 5.95912C22.5963 6.13927 22.6209 6.31955 22.6443 6.49994C22.8813 8.32541 22.9998 10.1627 22.9998 11.9999H1C1 10.1627 1.1185 8.32541 1.35548 6.49994C1.37889 6.31955 1.40347 6.13927 1.4292 5.95912C1.76465 3.61064 3.60991 1.76485 5.95838 1.4293C7.96094 1.14318 9.97875 1.00008 11.9966 1Z" fill="#E9E9E0"/>
<path d="M1 11.9999H22.9998C22.9998 13.8371 22.8813 15.6744 22.6443 17.4999C22.6209 17.6803 22.5963 17.8606 22.5705 18.0408C22.2351 20.3892 20.3898 22.235 18.0414 22.5706C16.0643 22.8531 14.0723 22.9961 12.0802 22.9998H11.9196C9.92741 22.9961 7.93547 22.8531 5.95839 22.5706C3.60992 22.235 1.76466 20.3892 1.42921 18.0408C1.40347 17.8606 1.3789 17.6803 1.35548 17.4999C1.1185 15.6744 0.999997 13.8371 1 11.9999Z" fill="#D75032"/>
<path d="M22.886 8.88645C21.9076 8.81496 20.931 8.70971 19.9581 8.57069C17.6096 8.23515 15.7643 6.38936 15.4289 4.04087C15.29 3.06818 15.1848 2.0918 15.1133 1.11353C16.0917 1.18502 17.0683 1.29027 18.0412 1.42929C20.3897 1.76483 22.2349 3.61062 22.5704 5.95911C22.7093 6.9318 22.8145 7.90818 22.886 8.88645Z" fill="#D9D7CA"/>
<path d="M8.26318 19V15.9697H9.45873C9.68857 15.9697 9.88438 16.0136 10.0462 16.1014C10.2079 16.1882 10.3312 16.3091 10.4161 16.4639C10.5019 16.6178 10.5448 16.7954 10.5448 16.9966C10.5448 17.1978 10.5014 17.3754 10.4146 17.5293C10.3278 17.6832 10.202 17.803 10.0373 17.8888C9.87353 17.9746 9.67525 18.0175 9.44246 18.0175H8.68044V17.5041H9.33888C9.46219 17.5041 9.56379 17.4829 9.64369 17.4405C9.72458 17.3971 9.78475 17.3374 9.8242 17.2615C9.86465 17.1845 9.88487 17.0962 9.88487 16.9966C9.88487 16.896 9.86465 16.8082 9.8242 16.7332C9.78475 16.6573 9.72458 16.5986 9.64369 16.5571C9.5628 16.5147 9.46021 16.4935 9.33592 16.4935H8.90387V19H8.26318Z" fill="white"/>
<path d="M12.0352 19H10.9609V15.9697H12.044C12.3488 15.9697 12.6112 16.0304 12.8312 16.1517C13.0512 16.2721 13.2203 16.4452 13.3387 16.6711C13.4581 16.897 13.5178 17.1672 13.5178 17.4819C13.5178 17.7976 13.4581 18.0688 13.3387 18.2957C13.2203 18.5226 13.0502 18.6967 12.8282 18.818C12.6073 18.9394 12.3429 19 12.0352 19ZM11.6016 18.4511H12.0085C12.1979 18.4511 12.3572 18.4175 12.4864 18.3505C12.6167 18.2824 12.7143 18.1774 12.7794 18.0353C12.8455 17.8923 12.8786 17.7078 12.8786 17.4819C12.8786 17.258 12.8455 17.075 12.7794 16.933C12.7143 16.7909 12.6171 16.6864 12.4879 16.6193C12.3587 16.5522 12.1994 16.5187 12.01 16.5187H11.6016V18.4511Z" fill="white"/>
<path d="M13.9924 19V15.9697H15.9987V16.498H14.633V17.22H15.8656V17.7483H14.633V19H13.9924Z" fill="white"/>
</svg>
