<svg width="15" height="15" viewBox="0 0 15 15" fill="none" xmlns="http://www.w3.org/2000/svg">
<path d="M6.30933 7.18139C6.04898 7.44174 6.04898 7.86385 6.30933 8.1242C6.56968 8.38455 6.99179 8.38455 7.25214 8.1242L9.88531 5.49103V6.70999C9.88531 7.07818 10.1838 7.37665 10.552 7.37665C10.9202 7.37665 11.2186 7.07818 11.2186 6.70999V3.88156C11.2186 3.79045 11.2004 3.7036 11.1673 3.6245C11.136 3.54956 11.0904 3.47918 11.0306 3.4175L11.0228 3.40954L11.016 3.40292C10.896 3.28654 10.7324 3.21489 10.552 3.21489L7.72355 3.21489C7.35536 3.21489 7.05688 3.51337 7.05688 3.88156C7.05688 4.24975 7.35536 4.54823 7.72355 4.54823L8.9425 4.54823L6.30933 7.18139Z" fill="#00884F"/>
<path fill-rule="evenodd" clip-rule="evenodd" d="M3.42736 2.77347C3.59368 1.60925 4.50842 0.694504 5.67264 0.528186C7.65837 0.244511 9.67434 0.244511 11.6601 0.528186C12.8243 0.694504 13.739 1.60925 13.9053 2.77347C14.189 4.7592 14.189 6.77516 13.9053 8.76089C13.739 9.92511 12.8243 10.8399 11.6601 11.0062C9.67434 11.2899 7.65837 11.2899 5.67264 11.0062C4.50842 10.8399 3.59368 9.92511 3.42736 8.76089C3.14369 6.77516 3.14369 4.7592 3.42736 2.77347ZM11.4818 9.75814C9.61431 10.0249 7.7184 10.0249 5.85094 9.75814C5.2414 9.67106 4.76248 9.19214 4.6754 8.5826C4.40862 6.71513 4.40862 4.81923 4.6754 2.95176C4.76248 2.34222 5.2414 1.8633 5.85094 1.77622C7.7184 1.50944 9.61431 1.50944 11.4818 1.77622C12.0913 1.8633 12.5702 2.34222 12.6573 2.95176C12.9241 4.81923 12.9241 6.71513 12.6573 8.5826C12.5702 9.19214 12.0913 9.67106 11.4818 9.75814Z" fill="#00884F"/>
<path d="M0.967978 5.4346C1.33575 5.41709 1.64809 5.70103 1.6656 6.0688L1.79714 8.83118C1.89522 10.8908 3.54278 12.5383 5.60235 12.6364L8.36473 12.7679C8.7325 12.7854 9.01645 13.0978 8.99893 13.4656C8.98142 13.8333 8.66908 14.1173 8.30131 14.0998L5.53893 13.9682C2.79284 13.8375 0.596084 11.6407 0.465318 8.8946L0.333776 6.13222C0.316263 5.76445 0.600205 5.45211 0.967978 5.4346Z" fill="#00884F"/>
</svg>
