<svg width="10" height="13" viewBox="0 0 10 13" fill="none" xmlns="http://www.w3.org/2000/svg">
<path d="M8.30566 2.64355C9.34098 3.55474 10 4.88419 10 6.36816C10 7.87304 9.32216 9.2188 8.26172 10.1309L8.09082 10.2715C7.40136 10.8141 6.56505 11.1821 5.65234 11.3135L6 11.6611L5.29297 12.3682L4.29297 11.3682H4V11.0752L3.64648 10.7217C3.45123 10.5264 3.45122 10.2099 3.64648 10.0146L4 9.66113V9.36816H4.29297L5.29297 8.36816L6 9.0752L5.84961 9.22461C6.17538 9.12373 6.47781 8.97411 6.74609 8.78125L6.95801 8.61426C7.60204 8.06022 8 7.25744 8 6.36816C8 5.49087 7.61301 4.69772 6.98438 4.14453L7.64453 3.39355L8.30566 2.64355ZM5.70703 1.36816H6V1.66113L6.35352 2.01465C6.54877 2.20991 6.54878 2.52642 6.35352 2.72168L6 3.0752V3.36816H5.70703L4.70703 4.36816L4 3.66113L4.15137 3.50879C2.89359 3.897 2 5.04348 2 6.36816C2 7.25576 2.39623 8.0574 3.03809 8.61133L1.73145 10.125C0.674839 9.21305 0 7.86986 0 6.36816C0 3.8378 1.90245 1.77402 4.3457 1.4209L4 1.0752L4.70703 0.368164L5.70703 1.36816Z" fill="#3A3A3A"/>
</svg>
