<svg width="35" height="36" viewBox="0 0 35 36" fill="none" xmlns="http://www.w3.org/2000/svg">
<path fill-rule="evenodd" clip-rule="evenodd" d="M12.375 6.04199C12.375 7.19568 11.9938 8.26032 11.3505 9.11685C13.01 10.3636 14.0834 12.3483 14.0834 14.5837C14.0834 15.5271 13.3185 16.292 12.375 16.292H2.12502C1.18153 16.292 0.416687 15.5271 0.416687 14.5837C0.416687 12.3483 1.49007 10.3636 3.14954 9.11685C2.50622 8.26032 2.12502 7.19568 2.12502 6.04199C2.12502 3.21153 4.41956 0.916992 7.25002 0.916992C10.0805 0.916992 12.375 3.21153 12.375 6.04199ZM5.54169 6.04199C5.54169 5.09851 6.30653 4.33366 7.25002 4.33366C8.19351 4.33366 8.95835 5.09851 8.95835 6.04199C8.95835 6.98548 8.19351 7.75033 7.25002 7.75033C6.30653 7.75033 5.54169 6.98548 5.54169 6.04199ZM4.29044 12.8753C4.8812 11.8541 5.98537 11.167 7.25002 11.167C8.51467 11.167 9.61884 11.8541 10.2096 12.8753H4.29044Z" fill="#3A3A3A"/>
<path fill-rule="evenodd" clip-rule="evenodd" d="M11.3505 27.9085C11.9938 27.052 12.375 25.9873 12.375 24.8337C12.375 22.0032 10.0805 19.7087 7.25002 19.7087C4.41956 19.7087 2.12502 22.0032 2.12502 24.8337C2.12502 25.9873 2.50622 27.052 3.14954 27.9085C1.49007 29.1552 0.416687 31.1399 0.416687 33.3753C0.416687 34.3188 1.18153 35.0837 2.12502 35.0837H12.375C13.3185 35.0837 14.0834 34.3188 14.0834 33.3753C14.0834 31.1399 13.01 29.1552 11.3505 27.9085ZM5.54169 24.8337C5.54169 23.8902 6.30653 23.1253 7.25002 23.1253C8.19351 23.1253 8.95835 23.8902 8.95835 24.8337C8.95835 25.7771 8.19351 26.542 7.25002 26.542C6.30653 26.542 5.54169 25.7771 5.54169 24.8337ZM7.25002 29.9587C5.98537 29.9587 4.8812 30.6457 4.29044 31.667H10.2096C9.61884 30.6457 8.51467 29.9587 7.25002 29.9587Z" fill="#3A3A3A"/>
<path d="M17.5 4.33366H34.5834V7.75033H17.5V4.33366Z" fill="#3A3A3A"/>
<path d="M17.5 11.167H26.0417V14.5837H17.5V11.167Z" fill="#3A3A3A"/>
<path d="M26.0417 29.9587H17.5V33.3753H26.0417V29.9587Z" fill="#3A3A3A"/>
<path d="M34.5834 23.1253H17.5V26.542H34.5834V23.1253Z" fill="#3A3A3A"/>
</svg>
