<svg width="39" height="38" viewBox="0 0 39 38" fill="none" xmlns="http://www.w3.org/2000/svg">
<path fill-rule="evenodd" clip-rule="evenodd" d="M17.7916 25.6183C14.8444 24.8597 12.6666 22.1843 12.6666 19.0002C12.6666 15.2263 15.726 12.1669 19.5 12.1669C22.684 12.1669 25.3595 14.3446 26.118 17.2919H38.215C37.863 13.3853 36.3154 9.82353 33.941 6.97515L31.5797 9.33643L29.1637 6.92049L31.525 4.5592C28.6766 2.18477 25.1148 0.637192 21.2083 0.285156V3.62522H17.7916V0.285156C13.885 0.637199 10.3232 2.18482 7.47478 4.55933L9.83597 6.92051L7.42002 9.33646L5.05886 6.9753C2.68447 9.82367 1.13693 13.3854 0.784912 17.2919H4.12498V20.7086H0.784921C1.13697 24.6151 2.68455 28.1769 5.05899 31.0253L7.42027 28.664L9.83622 31.08L7.47495 33.4412C10.3233 35.8157 13.8851 37.3632 17.7916 37.7153V25.6183ZM22.9166 19.0002C22.9166 19.5245 22.7986 20.0211 22.5876 20.4651L27.4555 26.9557L20.965 22.0878C20.521 22.2988 20.0243 22.4169 19.5 22.4169C17.613 22.4169 16.0833 20.8872 16.0833 19.0002C16.0833 17.1132 17.613 15.5836 19.5 15.5836C21.387 15.5836 22.9166 17.1132 22.9166 19.0002ZM34.8172 20.3436C34.8554 19.9013 34.875 19.4532 34.875 19.0002H38.2916C38.2916 19.5516 38.2679 20.0978 38.2212 20.6379L34.8172 20.3436ZM34.6435 21.6748C34.4871 22.5669 34.2539 23.4322 33.9508 24.2639L37.1611 25.4336C37.5321 24.4153 37.8175 23.356 38.0088 22.2646L34.6435 21.6748ZM32.0927 27.824C32.6052 27.0941 33.0557 26.3178 33.4366 25.503L36.5317 26.95C36.0657 27.9468 35.515 28.8957 34.8889 29.7874L32.0927 27.824ZM31.2738 28.8886C30.9854 29.2316 30.6823 29.5618 30.3655 29.8783C30.0491 30.1943 29.719 30.4966 29.3762 30.7842L31.5724 33.4015C31.9909 33.0504 32.3938 32.6814 32.78 32.2956C33.1668 31.9093 33.5368 31.5062 33.8889 31.0874L31.2738 28.8886ZM25.9938 32.941C26.8077 32.5612 27.5831 32.112 28.3125 31.6008L30.2733 34.3988C29.3824 35.0232 28.4345 35.5724 27.4388 36.0371L25.9938 32.941ZM24.7563 33.4538C23.9256 33.7559 23.0615 33.9885 22.1706 34.1444L22.7596 37.5099C23.8494 37.3192 24.9073 37.0345 25.9243 36.6646L24.7563 33.4538ZM19.5 34.3752C19.9523 34.3752 20.3997 34.3557 20.8414 34.3176L21.1352 37.7216C20.5959 37.7682 20.0505 37.7919 19.5 37.7919L19.5 34.3752Z" fill="#3A3A3A"/>
</svg>
