<svg width="18" height="17" viewBox="0 0 18 17" fill="none" xmlns="http://www.w3.org/2000/svg">
<path d="M9.00033 14.1429L4.85033 16.6429C4.667 16.7595 4.47533 16.8095 4.27533 16.7929C4.07533 16.7762 3.90033 16.7095 3.75033 16.5929C3.60033 16.4762 3.48366 16.3305 3.40033 16.1559C3.317 15.9812 3.30033 15.7852 3.35033 15.5679L4.45033 10.8429L0.775329 7.66787C0.608662 7.51787 0.504662 7.34687 0.463329 7.15487C0.421996 6.96287 0.434329 6.77554 0.500329 6.59287C0.566329 6.4102 0.666329 6.2602 0.800329 6.14287C0.934329 6.02554 1.11766 5.95054 1.35033 5.91787L6.20033 5.49287L8.07533 1.04287C8.15866 0.842871 8.288 0.692871 8.46333 0.592871C8.63866 0.492871 8.81766 0.442871 9.00033 0.442871C9.183 0.442871 9.362 0.492871 9.53733 0.592871C9.71266 0.692871 9.842 0.842871 9.92533 1.04287L11.8003 5.49287L16.6503 5.91787C16.8837 5.9512 17.067 6.0262 17.2003 6.14287C17.3337 6.25954 17.4337 6.40954 17.5003 6.59287C17.567 6.77621 17.5797 6.96387 17.5383 7.15587C17.497 7.34787 17.3927 7.51854 17.2253 7.66787L13.5503 10.8429L14.6503 15.5679C14.7003 15.7845 14.6837 15.9805 14.6003 16.1559C14.517 16.3312 14.4003 16.4769 14.2503 16.5929C14.1003 16.7089 13.9253 16.7755 13.7253 16.7929C13.5253 16.8102 13.3337 16.7602 13.1503 16.6429L9.00033 14.1429Z" fill="#00852C"/>
</svg>
