<svg width="18" height="17" viewBox="0 0 18 17" fill="none" xmlns="http://www.w3.org/2000/svg">
<path d="M5.85033 13.6938L9.00033 11.7938L12.1503 13.7188L11.3253 10.1188L14.1003 7.71885L10.4503 7.39385L9.00033 3.99385L7.55033 7.36885L3.90033 7.69385L6.67533 10.1188L5.85033 13.6938ZM9.00033 14.1438L4.85033 16.6438C4.667 16.7605 4.47533 16.8105 4.27533 16.7938C4.07533 16.7772 3.90033 16.7105 3.75033 16.5938C3.60033 16.4772 3.48366 16.3315 3.40033 16.1568C3.317 15.9822 3.30033 15.7862 3.35033 15.5688L4.45033 10.8438L0.775329 7.66885C0.608662 7.51885 0.504662 7.34785 0.463329 7.15585C0.421996 6.96385 0.434329 6.77652 0.500329 6.59385C0.566329 6.41118 0.666329 6.26118 0.800329 6.14385C0.934329 6.02651 1.11766 5.95151 1.35033 5.91885L6.20033 5.49385L8.07533 1.04385C8.15866 0.843848 8.288 0.693848 8.46333 0.593848C8.63866 0.493848 8.81766 0.443848 9.00033 0.443848C9.183 0.443848 9.362 0.493848 9.53733 0.593848C9.71266 0.693848 9.842 0.843848 9.92533 1.04385L11.8003 5.49385L16.6503 5.91885C16.8837 5.95218 17.067 6.02718 17.2003 6.14385C17.3337 6.26051 17.4337 6.41051 17.5003 6.59385C17.567 6.77718 17.5797 6.96485 17.5383 7.15685C17.497 7.34885 17.3927 7.51951 17.2253 7.66885L13.5503 10.8438L14.6503 15.5688C14.7003 15.7855 14.6837 15.9815 14.6003 16.1568C14.517 16.3322 14.4003 16.4778 14.2503 16.5938C14.1003 16.7098 13.9253 16.7765 13.7253 16.7938C13.5253 16.8112 13.3337 16.7612 13.1503 16.6438L9.00033 14.1438Z" fill="#626262"/>
</svg>
