<svg width="24" height="24" viewBox="0 0 24 24" fill="none" xmlns="http://www.w3.org/2000/svg">
<path d="M9 5C9 5.67533 8.77686 6.29854 8.40028 6.79992C9.37168 7.5297 10 8.69147 10 10C10 10.5523 9.55228 11 9 11H3C2.44772 11 2 10.5523 2 10C2 8.69147 2.62832 7.5297 3.59972 6.79992C3.22314 6.29854 3 5.67533 3 5C3 3.34315 4.34315 2 6 2C7.65685 2 9 3.34315 9 5Z" fill="#336AFF"/>
<path d="M8.40028 17.7999C8.77686 17.2985 9 16.6753 9 16C9 14.3431 7.65685 13 6 13C4.34315 13 3 14.3431 3 16C3 16.6753 3.22314 17.2985 3.59972 17.7999C2.62832 18.5297 2 19.6915 2 21C2 21.5523 2.44772 22 3 22H9C9.55228 22 10 21.5523 10 21C10 19.6915 9.37168 18.5297 8.40028 17.7999Z" fill="#336AFF"/>
<path d="M12 4H22V6H12V4Z" fill="#336AFF"/>
<path d="M12 8H17V10H12V8Z" fill="#336AFF"/>
<path d="M17 19H12V21H17V19Z" fill="#336AFF"/>
<path d="M22 15H12V17H22V15Z" fill="#336AFF"/>
</svg>
