<svg width="12" height="14" viewBox="0 0 12 14" fill="none" xmlns="http://www.w3.org/2000/svg">
<path d="M4 5.66732H5.33333V11.0007H4V5.66732Z" fill="black"/>
<path d="M8 5.66732H6.66667V11.0007H8V5.66732Z" fill="black"/>
<path fill-rule="evenodd" clip-rule="evenodd" d="M2.98413 3.00065L3.37512 1.35849C3.51812 0.757866 4.05478 0.333984 4.67219 0.333984H7.32781C7.94522 0.333984 8.48188 0.757866 8.62488 1.35849L9.01587 3.00065H12V4.33398H10.6667V12.334C10.6667 13.0704 10.0697 13.6673 9.33333 13.6673H2.66667C1.93029 13.6673 1.33333 13.0704 1.33333 12.334V4.33398H0V3.00065H2.98413ZM4.67219 1.66732H7.32781L7.64527 3.00065H4.35473L4.67219 1.66732ZM9.33333 4.33398H2.66667V12.334H9.33333V4.33398Z" fill="black"/>
</svg>
