<svg width="18" height="18" viewBox="0 0 18 18" fill="none" xmlns="http://www.w3.org/2000/svg">
<path fill-rule="evenodd" clip-rule="evenodd" d="M10.845 6.21655L8.99998 4.37155L7.14748 6.21655C6.85498 6.50905 6.38248 6.50905 6.08998 6.21655C5.79748 5.92405 5.79748 5.45155 6.08998 5.15905L8.46748 2.77405C8.6076 2.63361 8.79784 2.55469 8.99623 2.55469C9.19462 2.55469 9.38486 2.63361 9.52498 2.77405L11.9025 5.15905C12.195 5.45155 12.195 5.92405 11.9025 6.21655C11.61 6.50905 11.1375 6.50905 10.845 6.21655ZM7.15498 11.7816L8.99998 13.6266L10.8525 11.7891C10.9926 11.6486 11.1828 11.5697 11.3812 11.5697C11.5796 11.5697 11.7699 11.6486 11.91 11.7891C12.2025 12.0816 12.2025 12.5541 11.91 12.8466L9.53248 15.2241C9.23998 15.5166 8.76748 15.5166 8.47498 15.2241L6.09748 12.8391C5.80498 12.5466 5.80498 12.0741 6.09748 11.7816C6.2376 11.6411 6.42784 11.5622 6.62623 11.5622C6.82462 11.5622 7.01486 11.6411 7.15498 11.7816Z" fill="black" fill-opacity="0.54"/>
</svg>
