<svg width="10" height="11" viewBox="0 0 10 11" fill="none" xmlns="http://www.w3.org/2000/svg">
<path fill-rule="evenodd" clip-rule="evenodd" d="M7.29289 4.36793L5.5 2.57505L5.5 8.86792H4.5L4.5 2.575L2.70711 4.3679L2 3.66079L4.64642 1.01437C4.84169 0.819104 5.15827 0.819104 5.35353 1.01437L8 3.66082L7.29289 4.36793ZM1 8.36792V7.36792H0V8.36792C0 9.74863 1.11929 10.8679 2.5 10.8679H7.5C8.88071 10.8679 10 9.74863 10 8.36792V7.36792H9V8.36792C9 9.19635 8.32843 9.86792 7.5 9.86792H2.5C1.67157 9.86792 1 9.19635 1 8.36792Z" fill="white"/>
</svg>
