<svg width="22" height="22" viewBox="0 0 22 22" fill="none" xmlns="http://www.w3.org/2000/svg">
<path fill-rule="evenodd" clip-rule="evenodd" d="M6.14147 1.10811L6.41409 2.19858C6.62626 2.73836 7.07861 3.49504 7.72835 4.02518C8.36177 4.542 9.15535 4.83236 10.1839 4.53848C13.1298 3.69679 17.2712 3.64107 18.9795 3.71138H19.1975C17.1822 1.43503 14.238 0 10.9587 0C9.23097 0 7.59629 0.398309 6.14147 1.10811ZM20.6062 5.71138H18.9375L18.9164 5.71048C17.278 5.64122 13.3751 5.70674 10.7334 6.46152C8.96199 6.96764 7.50557 6.42467 6.46398 5.57482C5.45893 4.75477 4.81901 3.64225 4.52234 2.85112L4.50234 2.79779L4.35364 2.20298C1.94493 4.01437 0.304207 6.79203 0.00716547 9.96024H0.572194L0.584059 9.96052C2.57329 10.0078 7.06633 11.158 9.70233 15.4C10.9455 17.4005 11.5014 18.2404 12.0685 18.7065C12.5541 19.1057 13.0818 19.2559 14.5909 19.5082L15.3843 19.5876L15.5795 18.953L15.5882 18.929C15.7953 18.3608 16.0239 17.0976 16.1029 15.6348C16.1816 14.1767 16.1017 12.6898 15.7893 11.6585C15.3506 10.2101 16.0198 8.92682 16.9703 8.12255C17.8982 7.33738 19.2147 6.88101 20.5075 6.99995H21.2088C21.0353 6.55565 20.8337 6.1254 20.6062 5.71138ZM21.7773 8.99995H20.4064L20.3544 8.9945C19.6146 8.91697 18.8096 9.18614 18.2622 9.6493C17.7242 10.1046 17.5624 10.6131 17.7035 11.0788C18.1158 12.4402 18.1833 14.1999 18.1 15.7427C18.0177 17.2652 17.7787 18.7425 17.4766 19.5881L17.4143 19.7906L17.5537 19.8045C20.2283 17.7979 21.9587 14.601 21.9587 11C21.9587 10.317 21.8964 9.64852 21.7773 8.99995ZM10.9587 22C5.20707 22 0.486481 17.5857 0 11.9602H0.547817C2.08808 12.001 5.83059 12.9587 8.0036 16.4556C9.16762 18.3288 9.91457 19.525 10.7985 20.2516C11.76 21.0418 12.8268 21.2418 14.2917 21.486C13.2404 21.8199 12.1206 22 10.9587 22Z" fill="#3A3A3A"/>
</svg>
